{
	"asset":{
		"generator":"Khronos glTF Blender I/O v4.3.12",
		"version":"2.0"
	},
	"scene":0,
	"scenes":[
		{
			"name":"Scene",
			"nodes":[
				2
			]
		}
	],
	"nodes":[
		{
			"mesh":0,
			"name":"Flash_memory_001_mesh"
		},
		{
			"mesh":1,
			"name":"Flash_memory_002_mesh"
		},
		{
			"children":[
				0,
				1
			],
			"name":"Flash_memory_null"
		}
	],
	"materials":[
		{
			"doubleSided":true,
			"name":"Flash_memory_001_material",
			"normalTexture":{
				"index":0,
				"scale":0.36000001430511475
			},
			"pbrMetallicRoughness":{
				"baseColorTexture":{
					"index":1
				},
				"metallicRoughnessTexture":{
					"index":2
				}
			}
		},
		{
			"doubleSided":true,
			"name":"Flash_memory_002_material",
			"normalTexture":{
				"index":3
			},
			"pbrMetallicRoughness":{
				"baseColorTexture":{
					"index":4
				},
				"metallicRoughnessTexture":{
					"index":5
				}
			}
		},
		{
			"doubleSided":true,
			"name":"Flash_memory_003_material",
			"normalTexture":{
				"index":6
			},
			"pbrMetallicRoughness":{
				"baseColorTexture":{
					"index":7
				},
				"metallicRoughnessTexture":{
					"index":8
				}
			}
		},
		{
			"doubleSided":true,
			"name":"Flash_memory_004_material",
			"normalTexture":{
				"index":9,
				"scale":0.9599999785423279
			},
			"pbrMetallicRoughness":{
				"baseColorTexture":{
					"index":10
				},
				"metallicRoughnessTexture":{
					"index":11
				}
			}
		}
	],
	"meshes":[
		{
			"name":"Flash_memory_001_mesh",
			"primitives":[
				{
					"attributes":{
						"POSITION":0,
						"NORMAL":1,
						"TEXCOORD_0":2
					},
					"indices":3,
					"material":0
				},
				{
					"attributes":{
						"POSITION":4,
						"NORMAL":5,
						"TEXCOORD_0":6
					},
					"indices":7,
					"material":1
				},
				{
					"attributes":{
						"POSITION":8,
						"NORMAL":9,
						"TEXCOORD_0":10
					},
					"indices":11,
					"material":2
				}
			]
		},
		{
			"name":"Flash_memory_002_mesh",
			"primitives":[
				{
					"attributes":{
						"POSITION":12,
						"NORMAL":13,
						"TEXCOORD_0":14
					},
					"indices":15,
					"material":3
				},
				{
					"attributes":{
						"POSITION":16,
						"NORMAL":17,
						"TEXCOORD_0":18
					},
					"indices":19,
					"material":0
				}
			]
		}
	],
	"textures":[
		{
			"sampler":0,
			"source":0
		},
		{
			"sampler":0,
			"source":1
		},
		{
			"sampler":0,
			"source":2
		},
		{
			"sampler":0,
			"source":3
		},
		{
			"sampler":0,
			"source":4
		},
		{
			"sampler":0,
			"source":5
		},
		{
			"sampler":0,
			"source":6
		},
		{
			"sampler":0,
			"source":7
		},
		{
			"sampler":0,
			"source":8
		},
		{
			"sampler":0,
			"source":9
		},
		{
			"sampler":0,
			"source":10
		},
		{
			"sampler":0,
			"source":11
		}
	],
	"images":[
		{
			"mimeType":"image/png",
			"name":"flash_6_Material.001_Normal",
			"uri":"flash_6_Material_001_Normal.png"
		},
		{
			"mimeType":"image/png",
			"name":"flash_6_Material.001_BaseColor",
			"uri":"flash_6_Material_001_BaseColor.png"
		},
		{
			"mimeType":"image/png",
			"name":"flash_6_Material.001_Metallic-flash_6_Material.001_Roughness",
			"uri":"flash_6_Material_001_Metallic-flash_6_Material_001_Roughness.png"
		},
		{
			"mimeType":"image/png",
			"name":"flash_6_Material.002_Normal",
			"uri":"flash_6_Material_002_Normal.png"
		},
		{
			"mimeType":"image/png",
			"name":"flash_6_Material.002_BaseColor",
			"uri":"flash_6_Material_002_BaseColor.png"
		},
		{
			"mimeType":"image/png",
			"name":"flash_6_Material.002_Metallic-flash_6_Material.002_Roughness",
			"uri":"flash_6_Material_002_Metallic-flash_6_Material_002_Roughness.png"
		},
		{
			"mimeType":"image/png",
			"name":"flash_6_DefaultMaterial_Normal",
			"uri":"flash_6_DefaultMaterial_Normal.png"
		},
		{
			"mimeType":"image/png",
			"name":"flash_6_DefaultMaterial_BaseColor",
			"uri":"flash_6_DefaultMaterial_BaseColor.png"
		},
		{
			"mimeType":"image/png",
			"name":"Flash_memory_001_Metalic-Flash_memory_001_Roughness",
			"uri":"Flash_memory_001_Metalic-Flash_memory_001_Roughness.png"
		},
		{
			"mimeType":"image/png",
			"name":"flash_6_Material_Normal",
			"uri":"flash_6_Material_Normal.png"
		},
		{
			"mimeType":"image/png",
			"name":"flash_6_Material_BaseColor",
			"uri":"flash_6_Material_BaseColor.png"
		},
		{
			"mimeType":"image/png",
			"name":"flash_6_Material_Metallic-flash_6_Material_Roughness",
			"uri":"flash_6_Material_Metallic-flash_6_Material_Roughness.png"
		}
	],
	"accessors":[
		{
			"bufferView":0,
			"componentType":5126,
			"count":8048,
			"max":[
				0.33201491832733154,
				0.6771177053451538,
				0.05319890379905701
			],
			"min":[
				0.048682183027267456,
				0.3863338232040405,
				-0.08285211026668549
			],
			"type":"VEC3"
		},
		{
			"bufferView":1,
			"componentType":5126,
			"count":8048,
			"type":"VEC3"
		},
		{
			"bufferView":2,
			"componentType":5126,
			"count":8048,
			"type":"VEC2"
		},
		{
			"bufferView":3,
			"componentType":5123,
			"count":43200,
			"type":"SCALAR"
		},
		{
			"bufferView":4,
			"componentType":5126,
			"count":287,
			"max":[
				0.326641321182251,
				0.6670841574668884,
				0.015320837497711182
			],
			"min":[
				0.07496505975723267,
				0.40921783447265625,
				-0.07881875336170197
			],
			"type":"VEC3"
		},
		{
			"bufferView":5,
			"componentType":5126,
			"count":287,
			"type":"VEC3"
		},
		{
			"bufferView":6,
			"componentType":5126,
			"count":287,
			"type":"VEC2"
		},
		{
			"bufferView":7,
			"componentType":5123,
			"count":828,
			"type":"SCALAR"
		},
		{
			"bufferView":8,
			"componentType":5126,
			"count":2238,
			"max":[
				0.0009256899356842041,
				0.05582946538925171,
				0.0933155044913292
			],
			"min":[
				-0.15535074472427368,
				-0.08196666836738586,
				0.014778174459934235
			],
			"type":"VEC3"
		},
		{
			"bufferView":9,
			"componentType":5126,
			"count":2238,
			"type":"VEC3"
		},
		{
			"bufferView":10,
			"componentType":5126,
			"count":2238,
			"type":"VEC2"
		},
		{
			"bufferView":11,
			"componentType":5123,
			"count":11712,
			"type":"SCALAR"
		},
		{
			"bufferView":12,
			"componentType":5126,
			"count":12848,
			"max":[
				0.2933204174041748,
				0.5081948637962341,
				0.12878015637397766
			],
			"min":[
				-0.40210968255996704,
				-0.5558267831802368,
				-0.13220886886119843
			],
			"type":"VEC3"
		},
		{
			"bufferView":13,
			"componentType":5126,
			"count":12848,
			"type":"VEC3"
		},
		{
			"bufferView":14,
			"componentType":5126,
			"count":12848,
			"type":"VEC2"
		},
		{
			"bufferView":15,
			"componentType":5123,
			"count":68448,
			"type":"SCALAR"
		},
		{
			"bufferView":16,
			"componentType":5126,
			"count":439,
			"max":[
				0.0010006129741668701,
				0.055138230323791504,
				0.07929743826389313
			],
			"min":[
				-0.23341427743434906,
				-0.2690808176994324,
				0.017724134027957916
			],
			"type":"VEC3"
		},
		{
			"bufferView":17,
			"componentType":5126,
			"count":439,
			"type":"VEC3"
		},
		{
			"bufferView":18,
			"componentType":5126,
			"count":439,
			"type":"VEC2"
		},
		{
			"bufferView":19,
			"componentType":5123,
			"count":2304,
			"type":"SCALAR"
		}
	],
	"bufferViews":[
		{
			"buffer":0,
			"byteLength":96576,
			"byteOffset":0,
			"target":34962
		},
		{
			"buffer":0,
			"byteLength":96576,
			"byteOffset":96576,
			"target":34962
		},
		{
			"buffer":0,
			"byteLength":64384,
			"byteOffset":193152,
			"target":34962
		},
		{
			"buffer":0,
			"byteLength":86400,
			"byteOffset":257536,
			"target":34963
		},
		{
			"buffer":0,
			"byteLength":3444,
			"byteOffset":343936,
			"target":34962
		},
		{
			"buffer":0,
			"byteLength":3444,
			"byteOffset":347380,
			"target":34962
		},
		{
			"buffer":0,
			"byteLength":2296,
			"byteOffset":350824,
			"target":34962
		},
		{
			"buffer":0,
			"byteLength":1656,
			"byteOffset":353120,
			"target":34963
		},
		{
			"buffer":0,
			"byteLength":26856,
			"byteOffset":354776,
			"target":34962
		},
		{
			"buffer":0,
			"byteLength":26856,
			"byteOffset":381632,
			"target":34962
		},
		{
			"buffer":0,
			"byteLength":17904,
			"byteOffset":408488,
			"target":34962
		},
		{
			"buffer":0,
			"byteLength":23424,
			"byteOffset":426392,
			"target":34963
		},
		{
			"buffer":0,
			"byteLength":154176,
			"byteOffset":449816,
			"target":34962
		},
		{
			"buffer":0,
			"byteLength":154176,
			"byteOffset":603992,
			"target":34962
		},
		{
			"buffer":0,
			"byteLength":102784,
			"byteOffset":758168,
			"target":34962
		},
		{
			"buffer":0,
			"byteLength":136896,
			"byteOffset":860952,
			"target":34963
		},
		{
			"buffer":0,
			"byteLength":5268,
			"byteOffset":997848,
			"target":34962
		},
		{
			"buffer":0,
			"byteLength":5268,
			"byteOffset":1003116,
			"target":34962
		},
		{
			"buffer":0,
			"byteLength":3512,
			"byteOffset":1008384,
			"target":34962
		},
		{
			"buffer":0,
			"byteLength":4608,
			"byteOffset":1011896,
			"target":34963
		}
	],
	"samplers":[
		{
			"magFilter":9729,
			"minFilter":9987
		}
	],
	"buffers":[
		{
			"byteLength":1016504,
			"uri":"Flash_memory.bin"
		}
	]
}
