{
	"asset":{
		"generator":"Khronos glTF Blender I/O v4.3.12",
		"version":"2.0"
	},
	"extensionsUsed":[
		"KHR_materials_clearcoat"
	],
	"scene":0,
	"scenes":[
		{
			"name":"Scene",
			"nodes":[
				7
			]
		}
	],
	"nodes":[
		{
			"mesh":0,
			"name":"Floppy_disc_001_mesh"
		},
		{
			"mesh":1,
			"name":"Floppy_disc_002_mesh"
		},
		{
			"children":[
				1
			],
			"name":"Floppy_disc_002_null",
			"translation":[
				-2.299999713897705,
				0.16500000655651093,
				-9.25
			]
		},
		{
			"mesh":2,
			"name":"Floppy_disc_003_mesh"
		},
		{
			"children":[
				3
			],
			"name":"Floppy_disc_003_null",
			"translation":[
				0,
				0.16500000655651093,
				-4.449999809265137
			]
		},
		{
			"mesh":3,
			"name":"Floppy_disc_004_mesh"
		},
		{
			"children":[
				5
			],
			"name":"Floppy_disc_004_null",
			"translation":[
				-4,
				0.08249999582767487,
				-0.7000000476837158
			]
		},
		{
			"children":[
				0,
				2,
				4,
				6
			],
			"name":"Floppy_disc_null",
			"rotation":[
				0.70710688829422,
				0,
				0,
				0.7071066498756409
			],
			"scale":[
				0.11118675023317337,
				0.11118676513433456,
				0.11118676513433456
			],
			"translation":[
				0,
				-0.5077968239784241,
				0
			]
		}
	],
	"animations":[
		{
			"channels":[
				{
					"sampler":0,
					"target":{
						"node":2,
						"path":"translation"
					}
				},
				{
					"sampler":1,
					"target":{
						"node":4,
						"path":"rotation"
					}
				},
				{
					"sampler":2,
					"target":{
						"node":6,
						"path":"translation"
					}
				}
			],
			"name":"Parts",
			"samplers":[
				{
					"input":16,
					"interpolation":"LINEAR",
					"output":17
				},
				{
					"input":16,
					"interpolation":"LINEAR",
					"output":18
				},
				{
					"input":16,
					"interpolation":"LINEAR",
					"output":19
				}
			]
		}
	],
	"materials":[
		{
			"doubleSided":true,
			"extensions":{
				"KHR_materials_clearcoat":{
					"clearcoatRoughnessFactor":0
				}
			},
			"name":"Floppy_disc_001_material",
			"normalTexture":{
				"index":0
			},
			"pbrMetallicRoughness":{
				"baseColorTexture":{
					"index":1
				},
				"metallicRoughnessTexture":{
					"index":2
				}
			}
		}
	],
	"meshes":[
		{
			"name":"Floppy_disc_001_mesh",
			"primitives":[
				{
					"attributes":{
						"POSITION":0,
						"NORMAL":1,
						"TEXCOORD_0":2
					},
					"indices":3,
					"material":0
				}
			]
		},
		{
			"name":"Floppy_disc_002_mesh",
			"primitives":[
				{
					"attributes":{
						"POSITION":4,
						"NORMAL":5,
						"TEXCOORD_0":6
					},
					"indices":7,
					"material":0
				}
			]
		},
		{
			"name":"Floppy_disc_003_mesh",
			"primitives":[
				{
					"attributes":{
						"POSITION":8,
						"NORMAL":9,
						"TEXCOORD_0":10
					},
					"indices":11,
					"material":0
				}
			]
		},
		{
			"name":"Floppy_disc_004_mesh",
			"primitives":[
				{
					"attributes":{
						"POSITION":12,
						"NORMAL":13,
						"TEXCOORD_0":14
					},
					"indices":15,
					"material":0
				}
			]
		}
	],
	"textures":[
		{
			"sampler":0,
			"source":0
		},
		{
			"sampler":0,
			"source":1
		},
		{
			"sampler":0,
			"source":2
		}
	],
	"images":[
		{
			"mimeType":"image/png",
			"name":"Floppy_disc_Normal",
			"uri":"Floppy_disc_Normal.png"
		},
		{
			"mimeType":"image/png",
			"name":"Floppy_disc_BaceColor",
			"uri":"Floppy_disc_BaceColor.png"
		},
		{
			"mimeType":"image/png",
			"name":"Floppy_disc_Roughness",
			"uri":"Floppy_disc_Roughness.png"
		}
	],
	"accessors":[
		{
			"bufferView":0,
			"componentType":5126,
			"count":2961,
			"max":[
				4.449999809265137,
				0.33000001311302185,
				0
			],
			"min":[
				-4.449999809265137,
				0,
				-9.25
			],
			"type":"VEC3"
		},
		{
			"bufferView":1,
			"componentType":5126,
			"count":2961,
			"type":"VEC3"
		},
		{
			"bufferView":2,
			"componentType":5126,
			"count":2961,
			"type":"VEC2"
		},
		{
			"bufferView":3,
			"componentType":5123,
			"count":11370,
			"type":"SCALAR"
		},
		{
			"bufferView":4,
			"componentType":5126,
			"count":372,
			"max":[
				4.75,
				0.16500000655651093,
				3.0999999046325684
			],
			"min":[
				0,
				-0.16500000655651093,
				0
			],
			"type":"VEC3"
		},
		{
			"bufferView":5,
			"componentType":5126,
			"count":372,
			"type":"VEC3"
		},
		{
			"bufferView":6,
			"componentType":5126,
			"count":372,
			"type":"VEC2"
		},
		{
			"bufferView":7,
			"componentType":5123,
			"count":1248,
			"type":"SCALAR"
		},
		{
			"bufferView":8,
			"componentType":5126,
			"count":1261,
			"max":[
				4.199999809265137,
				0.004124999977648258,
				4.199999809265137
			],
			"min":[
				-4.199999809265137,
				-0.16912506520748138,
				-4.199999809265137
			],
			"type":"VEC3"
		},
		{
			"bufferView":9,
			"componentType":5126,
			"count":1261,
			"type":"VEC3"
		},
		{
			"bufferView":10,
			"componentType":5126,
			"count":1261,
			"type":"VEC2"
		},
		{
			"bufferView":11,
			"componentType":5123,
			"count":4926,
			"type":"SCALAR"
		},
		{
			"bufferView":12,
			"componentType":5126,
			"count":60,
			"max":[
				0.22499999403953552,
				0.057750001549720764,
				0.17499999701976776
			],
			"min":[
				-0.22499999403953552,
				-0.08250000327825546,
				-0.17499999701976776
			],
			"type":"VEC3"
		},
		{
			"bufferView":13,
			"componentType":5126,
			"count":60,
			"type":"VEC3"
		},
		{
			"bufferView":14,
			"componentType":5126,
			"count":60,
			"type":"VEC2"
		},
		{
			"bufferView":15,
			"componentType":5123,
			"count":204,
			"type":"SCALAR"
		},
		{
			"bufferView":16,
			"componentType":5126,
			"count":97,
			"max":[
				4
			],
			"min":[
				0
			],
			"type":"SCALAR"
		},
		{
			"bufferView":17,
			"componentType":5126,
			"count":97,
			"type":"VEC3"
		},
		{
			"bufferView":18,
			"componentType":5126,
			"count":97,
			"type":"VEC4"
		},
		{
			"bufferView":19,
			"componentType":5126,
			"count":97,
			"type":"VEC3"
		}
	],
	"bufferViews":[
		{
			"buffer":0,
			"byteLength":35532,
			"byteOffset":0,
			"target":34962
		},
		{
			"buffer":0,
			"byteLength":35532,
			"byteOffset":35532,
			"target":34962
		},
		{
			"buffer":0,
			"byteLength":23688,
			"byteOffset":71064,
			"target":34962
		},
		{
			"buffer":0,
			"byteLength":22740,
			"byteOffset":94752,
			"target":34963
		},
		{
			"buffer":0,
			"byteLength":4464,
			"byteOffset":117492,
			"target":34962
		},
		{
			"buffer":0,
			"byteLength":4464,
			"byteOffset":121956,
			"target":34962
		},
		{
			"buffer":0,
			"byteLength":2976,
			"byteOffset":126420,
			"target":34962
		},
		{
			"buffer":0,
			"byteLength":2496,
			"byteOffset":129396,
			"target":34963
		},
		{
			"buffer":0,
			"byteLength":15132,
			"byteOffset":131892,
			"target":34962
		},
		{
			"buffer":0,
			"byteLength":15132,
			"byteOffset":147024,
			"target":34962
		},
		{
			"buffer":0,
			"byteLength":10088,
			"byteOffset":162156,
			"target":34962
		},
		{
			"buffer":0,
			"byteLength":9852,
			"byteOffset":172244,
			"target":34963
		},
		{
			"buffer":0,
			"byteLength":720,
			"byteOffset":182096,
			"target":34962
		},
		{
			"buffer":0,
			"byteLength":720,
			"byteOffset":182816,
			"target":34962
		},
		{
			"buffer":0,
			"byteLength":480,
			"byteOffset":183536,
			"target":34962
		},
		{
			"buffer":0,
			"byteLength":408,
			"byteOffset":184016,
			"target":34963
		},
		{
			"buffer":0,
			"byteLength":388,
			"byteOffset":184424
		},
		{
			"buffer":0,
			"byteLength":1164,
			"byteOffset":184812
		},
		{
			"buffer":0,
			"byteLength":1552,
			"byteOffset":185976
		},
		{
			"buffer":0,
			"byteLength":1164,
			"byteOffset":187528
		}
	],
	"samplers":[
		{
			"magFilter":9729,
			"minFilter":9987
		}
	],
	"buffers":[
		{
			"byteLength":188692,
			"uri":"Floppy_disc.bin"
		}
	]
}
