{
	"asset":{
		"generator":"Khronos glTF Blender I/O v4.3.12",
		"version":"2.0"
	},
	"scene":0,
	"scenes":[
		{
			"name":"Scene",
			"nodes":[
				2
			]
		}
	],
	"nodes":[
		{
			"mesh":0,
			"name":"Magnetic_types_001_mesh",
			"scale":[
				0.11148305237293243,
				0.11148304492235184,
				0.11148305237293243
			]
		},
		{
			"mesh":1,
			"name":"Magnetic_types_002_mesh",
			"scale":[
				0.11148305237293243,
				0.11148304492235184,
				0.11148305237293243
			]
		},
		{
			"children":[
				0,
				1
			],
			"name":"Magnetic_types_null"
		}
	],
	"materials":[
		{
			"doubleSided":true,
			"name":"Magnetic_types_001_material",
			"normalTexture":{
				"index":0
			},
			"occlusionTexture":{
				"index":1
			},
			"pbrMetallicRoughness":{
				"baseColorTexture":{
					"index":2
				},
				"metallicRoughnessTexture":{
					"index":1
				},
				"roughnessFactor":0.9187228679656982
			}
		},
		{
			"alphaMode":"BLEND",
			"doubleSided":true,
			"name":"Magnetic_types_003_material",
			"normalTexture":{
				"index":3
			},
			"occlusionTexture":{
				"index":4
			},
			"pbrMetallicRoughness":{
				"baseColorTexture":{
					"index":5
				},
				"metallicRoughnessTexture":{
					"index":4
				}
			}
		}
	],
	"meshes":[
		{
			"name":"Magnetic_types_001_mesh",
			"primitives":[
				{
					"attributes":{
						"POSITION":0,
						"NORMAL":1,
						"TEXCOORD_0":2
					},
					"indices":3,
					"material":0
				}
			]
		},
		{
			"name":"Magnetic_types_002_mesh",
			"primitives":[
				{
					"attributes":{
						"POSITION":4,
						"NORMAL":5,
						"TEXCOORD_0":6
					},
					"indices":7,
					"material":1
				}
			]
		}
	],
	"textures":[
		{
			"sampler":0,
			"source":0
		},
		{
			"sampler":0,
			"source":1
		},
		{
			"sampler":0,
			"source":2
		},
		{
			"sampler":0,
			"source":3
		},
		{
			"sampler":0,
			"source":4
		},
		{
			"sampler":0,
			"source":5
		}
	],
	"images":[
		{
			"mimeType":"image/png",
			"name":"Magnetic_types_001_Normal",
			"uri":"Magnetic_types_001_Normal.png"
		},
		{
			"mimeType":"image/png",
			"name":"Magnetic_types_001_Roughness",
			"uri":"Magnetic_types_001_Roughness.png"
		},
		{
			"mimeType":"image/png",
			"name":"Magnetic_types_001_BaceColor",
			"uri":"Magnetic_types_001_BaceColor.png"
		},
		{
			"mimeType":"image/png",
			"name":"Magnetic_types_002_Normal",
			"uri":"Magnetic_types_002_Normal.png"
		},
		{
			"mimeType":"image/png",
			"name":"Magnetic_types_002_Roughness",
			"uri":"Magnetic_types_002_Roughness.png"
		},
		{
			"mimeType":"image/png",
			"name":"Magnetic_types_002_BaceColor",
			"uri":"Magnetic_types_002_BaceColor.png"
		}
	],
	"accessors":[
		{
			"bufferView":0,
			"componentType":5126,
			"count":4441,
			"max":[
				7.234285831451416,
				5.00615119934082,
				6.879388332366943
			],
			"min":[
				-2.692509651184082,
				-3.7463302612304688,
				-0.6610009074211121
			],
			"type":"VEC3"
		},
		{
			"bufferView":1,
			"componentType":5126,
			"count":4441,
			"type":"VEC3"
		},
		{
			"bufferView":2,
			"componentType":5126,
			"count":4441,
			"type":"VEC2"
		},
		{
			"bufferView":3,
			"componentType":5123,
			"count":10143,
			"type":"SCALAR"
		},
		{
			"bufferView":4,
			"componentType":5126,
			"count":2644,
			"max":[
				2.1184799671173096,
				5.6620965003967285,
				3.0705511569976807
			],
			"min":[
				-3.5444729328155518,
				-3.145207166671753,
				-1.3391703367233276
			],
			"type":"VEC3"
		},
		{
			"bufferView":5,
			"componentType":5126,
			"count":2644,
			"type":"VEC3"
		},
		{
			"bufferView":6,
			"componentType":5126,
			"count":2644,
			"type":"VEC2"
		},
		{
			"bufferView":7,
			"componentType":5123,
			"count":6519,
			"type":"SCALAR"
		}
	],
	"bufferViews":[
		{
			"buffer":0,
			"byteLength":53292,
			"byteOffset":0,
			"target":34962
		},
		{
			"buffer":0,
			"byteLength":53292,
			"byteOffset":53292,
			"target":34962
		},
		{
			"buffer":0,
			"byteLength":35528,
			"byteOffset":106584,
			"target":34962
		},
		{
			"buffer":0,
			"byteLength":20286,
			"byteOffset":142112,
			"target":34963
		},
		{
			"buffer":0,
			"byteLength":31728,
			"byteOffset":162400,
			"target":34962
		},
		{
			"buffer":0,
			"byteLength":31728,
			"byteOffset":194128,
			"target":34962
		},
		{
			"buffer":0,
			"byteLength":21152,
			"byteOffset":225856,
			"target":34962
		},
		{
			"buffer":0,
			"byteLength":13038,
			"byteOffset":247008,
			"target":34963
		}
	],
	"samplers":[
		{
			"magFilter":9729,
			"minFilter":9987
		}
	],
	"buffers":[
		{
			"byteLength":260048,
			"uri":"Magnetic_types.bin"
		}
	]
}
