{
	"asset":{
		"generator":"Khronos glTF Blender I/O v4.3.12",
		"version":"2.0"
	},
	"extensionsUsed":[
		"KHR_materials_clearcoat",
		"KHR_materials_specular",
		"KHR_materials_ior"
	],
	"scene":0,
	"scenes":[
		{
			"name":"Scene",
			"nodes":[
				4
			]
		}
	],
	"nodes":[
		{
			"mesh":0,
			"name":"Mid"
		},
		{
			"mesh":1,
			"name":"stylus",
			"rotation":[
				0.7013095617294312,
				0.09036006033420563,
				0.09036007523536682,
				0.7013095021247864
			],
			"scale":[
				0.303967148065567,
				0.30396711826324463,
				0.303967148065567
			],
			"translation":[
				0.03062010183930397,
				0.7829768061637878,
				1.3742114305496216
			]
		},
		{
			"mesh":2,
			"name":"tablet_L",
			"rotation":[
				0,
				-0.7071068286895752,
				0,
				0.7071068286895752
			],
			"translation":[
				0.06548133492469788,
				1.1474491357803345,
				0.08474042266607285
			]
		},
		{
			"mesh":3,
			"name":"tablet_R",
			"rotation":[
				0,
				0.7071068286895752,
				0,
				0.7071068286895752
			],
			"translation":[
				-0.04235240817070007,
				1.147449016571045,
				0.09139192849397659
			]
		},
		{
			"children":[
				0,
				1,
				2,
				3
			],
			"name":"Transform",
			"rotation":[
				0,
				0,
				-0.026654060930013657,
				0.9996448159217834
			]
		}
	],
	"animations":[
		{
			"channels":[
				{
					"sampler":0,
					"target":{
						"node":4,
						"path":"translation"
					}
				},
				{
					"sampler":1,
					"target":{
						"node":4,
						"path":"rotation"
					}
				},
				{
					"sampler":2,
					"target":{
						"node":4,
						"path":"scale"
					}
				}
			],
			"name":"TransformAction",
			"samplers":[
				{
					"input":24,
					"interpolation":"STEP",
					"output":25
				},
				{
					"input":26,
					"interpolation":"LINEAR",
					"output":27
				},
				{
					"input":24,
					"interpolation":"STEP",
					"output":28
				}
			]
		},
		{
			"channels":[
				{
					"sampler":0,
					"target":{
						"node":1,
						"path":"translation"
					}
				},
				{
					"sampler":1,
					"target":{
						"node":1,
						"path":"rotation"
					}
				},
				{
					"sampler":2,
					"target":{
						"node":1,
						"path":"scale"
					}
				}
			],
			"name":"stylusAction",
			"samplers":[
				{
					"input":29,
					"interpolation":"LINEAR",
					"output":30
				},
				{
					"input":29,
					"interpolation":"LINEAR",
					"output":31
				},
				{
					"input":29,
					"interpolation":"LINEAR",
					"output":32
				}
			]
		},
		{
			"channels":[
				{
					"sampler":0,
					"target":{
						"node":2,
						"path":"rotation"
					}
				}
			],
			"name":"tablet_LAction.001",
			"samplers":[
				{
					"input":33,
					"interpolation":"LINEAR",
					"output":34
				}
			]
		},
		{
			"channels":[
				{
					"sampler":0,
					"target":{
						"node":3,
						"path":"rotation"
					}
				}
			],
			"name":"tablet_RAction.001",
			"samplers":[
				{
					"input":33,
					"interpolation":"LINEAR",
					"output":35
				}
			]
		}
	],
	"materials":[
		{
			"doubleSided":true,
			"extensions":{
				"KHR_materials_clearcoat":{
					"clearcoatNormalTexture":{
						"index":0
					}
				},
				"KHR_materials_specular":{
					"specularFactor":0
				},
				"KHR_materials_ior":{
					"ior":1.4500000476837158
				}
			},
			"name":"TabletStylus",
			"pbrMetallicRoughness":{
				"baseColorTexture":{
					"index":1
				},
				"metallicRoughnessTexture":{
					"index":2
				}
			}
		},
		{
			"doubleSided":true,
			"extensions":{
				"KHR_materials_clearcoat":{
					"clearcoatNormalTexture":{
						"index":3
					}
				},
				"KHR_materials_specular":{
					"specularFactor":0
				},
				"KHR_materials_ior":{
					"ior":1.4500000476837158
				}
			},
			"name":"TabletWax",
			"pbrMetallicRoughness":{
				"baseColorTexture":{
					"index":4
				},
				"metallicRoughnessTexture":{
					"index":5
				}
			}
		}
	],
	"meshes":[
		{
			"name":"tablet_low.004",
			"primitives":[
				{
					"attributes":{
						"POSITION":0,
						"NORMAL":1,
						"TEXCOORD_0":2
					},
					"indices":3,
					"material":0
				}
			]
		},
		{
			"name":"stylus",
			"primitives":[
				{
					"attributes":{
						"POSITION":4,
						"NORMAL":5,
						"TEXCOORD_0":6
					},
					"indices":7,
					"material":0
				}
			]
		},
		{
			"name":"tablet_low.006",
			"primitives":[
				{
					"attributes":{
						"POSITION":8,
						"NORMAL":9,
						"TEXCOORD_0":10
					},
					"indices":11,
					"material":1
				},
				{
					"attributes":{
						"POSITION":12,
						"NORMAL":13,
						"TEXCOORD_0":14
					},
					"indices":15,
					"material":0
				}
			]
		},
		{
			"name":"tablet_low",
			"primitives":[
				{
					"attributes":{
						"POSITION":16,
						"NORMAL":17,
						"TEXCOORD_0":18
					},
					"indices":19,
					"material":0
				},
				{
					"attributes":{
						"POSITION":20,
						"NORMAL":21,
						"TEXCOORD_0":22
					},
					"indices":23,
					"material":1
				}
			]
		}
	],
	"textures":[
		{
			"sampler":0,
			"source":0
		},
		{
			"sampler":0,
			"source":1
		},
		{
			"sampler":0,
			"source":2
		},
		{
			"sampler":0,
			"source":0
		},
		{
			"sampler":0,
			"source":1
		},
		{
			"sampler":0,
			"source":2
		}
	],
	"images":[
		{
			"mimeType":"image/png",
			"name":"tablet_N",
			"uri":"tablet_N.png"
		},
		{
			"mimeType":"image/png",
			"name":"tablet_A",
			"uri":"tablet_A.png"
		},
		{
			"mimeType":"image/png",
			"name":"tablet_M-tablet_R",
			"uri":"tablet_M-tablet_R.png"
		}
	],
	"accessors":[
		{
			"bufferView":0,
			"componentType":5126,
			"count":461,
			"max":[
				0.3286060094833374,
				1.2194334268569946,
				0.30348512530326843
			],
			"min":[
				-0.3276439905166626,
				-1.231316089630127,
				-0.35356608033180237
			],
			"type":"VEC3"
		},
		{
			"bufferView":1,
			"componentType":5126,
			"count":461,
			"type":"VEC3"
		},
		{
			"bufferView":2,
			"componentType":5126,
			"count":461,
			"type":"VEC2"
		},
		{
			"bufferView":3,
			"componentType":5123,
			"count":2304,
			"type":"SCALAR"
		},
		{
			"bufferView":4,
			"componentType":5126,
			"count":1069,
			"max":[
				0.2413179874420166,
				0.1429908275604248,
				2.506145477294922
			],
			"min":[
				-0.4465975761413574,
				-0.14271807670593262,
				-1.0878796577453613
			],
			"type":"VEC3"
		},
		{
			"bufferView":5,
			"componentType":5126,
			"count":1069,
			"type":"VEC3"
		},
		{
			"bufferView":6,
			"componentType":5126,
			"count":1069,
			"type":"VEC2"
		},
		{
			"bufferView":7,
			"componentType":5123,
			"count":4446,
			"type":"SCALAR"
		},
		{
			"bufferView":8,
			"componentType":5126,
			"count":12,
			"max":[
				2.6416985988616943,
				0.48178231716156006,
				0.04326891154050827
			],
			"min":[
				0.4350707232952118,
				-2.776233434677124,
				-0.02338646724820137
			],
			"type":"VEC3"
		},
		{
			"bufferView":9,
			"componentType":5126,
			"count":12,
			"type":"VEC3"
		},
		{
			"bufferView":10,
			"componentType":5126,
			"count":12,
			"type":"VEC2"
		},
		{
			"bufferView":11,
			"componentType":5123,
			"count":54,
			"type":"SCALAR"
		},
		{
			"bufferView":12,
			"componentType":5126,
			"count":46,
			"max":[
				3.0364439487457275,
				0.828893780708313,
				0.012238509953022003
			],
			"min":[
				0.04023044556379318,
				-3.1232550144195557,
				-0.23746663331985474
			],
			"type":"VEC3"
		},
		{
			"bufferView":13,
			"componentType":5126,
			"count":46,
			"type":"VEC3"
		},
		{
			"bufferView":14,
			"componentType":5126,
			"count":46,
			"type":"VEC2"
		},
		{
			"bufferView":15,
			"componentType":5123,
			"count":222,
			"type":"SCALAR"
		},
		{
			"bufferView":16,
			"componentType":5126,
			"count":46,
			"max":[
				-0.035462066531181335,
				0.828893780708313,
				0.005587004125118256
			],
			"min":[
				-3.0316760540008545,
				-3.1232550144195557,
				-0.24411815404891968
			],
			"type":"VEC3"
		},
		{
			"bufferView":17,
			"componentType":5126,
			"count":46,
			"type":"VEC3"
		},
		{
			"bufferView":18,
			"componentType":5126,
			"count":46,
			"type":"VEC2"
		},
		{
			"bufferView":19,
			"componentType":5123,
			"count":222,
			"type":"SCALAR"
		},
		{
			"bufferView":20,
			"componentType":5126,
			"count":12,
			"max":[
				-0.43020758032798767,
				0.48178231716156006,
				0.03661740571260452
			],
			"min":[
				-2.6368353366851807,
				-2.776233434677124,
				-0.030037976801395416
			],
			"type":"VEC3"
		},
		{
			"bufferView":21,
			"componentType":5126,
			"count":12,
			"type":"VEC3"
		},
		{
			"bufferView":22,
			"componentType":5126,
			"count":12,
			"type":"VEC2"
		},
		{
			"bufferView":23,
			"componentType":5123,
			"count":54,
			"type":"SCALAR"
		},
		{
			"bufferView":24,
			"componentType":5126,
			"count":2,
			"max":[
				1.1666666666666667
			],
			"min":[
				0
			],
			"type":"SCALAR"
		},
		{
			"bufferView":25,
			"componentType":5126,
			"count":2,
			"type":"VEC3"
		},
		{
			"bufferView":26,
			"componentType":5126,
			"count":29,
			"max":[
				1.1666666666666667
			],
			"min":[
				0
			],
			"type":"SCALAR"
		},
		{
			"bufferView":27,
			"componentType":5126,
			"count":29,
			"type":"VEC4"
		},
		{
			"bufferView":28,
			"componentType":5126,
			"count":2,
			"type":"VEC3"
		},
		{
			"bufferView":29,
			"componentType":5126,
			"count":56,
			"max":[
				2.2916666666666665
			],
			"min":[
				0
			],
			"type":"SCALAR"
		},
		{
			"bufferView":30,
			"componentType":5126,
			"count":56,
			"type":"VEC3"
		},
		{
			"bufferView":31,
			"componentType":5126,
			"count":56,
			"type":"VEC4"
		},
		{
			"bufferView":32,
			"componentType":5126,
			"count":56,
			"type":"VEC3"
		},
		{
			"bufferView":33,
			"componentType":5126,
			"count":41,
			"max":[
				1.6666666666666667
			],
			"min":[
				0
			],
			"type":"SCALAR"
		},
		{
			"bufferView":34,
			"componentType":5126,
			"count":41,
			"type":"VEC4"
		},
		{
			"bufferView":35,
			"componentType":5126,
			"count":41,
			"type":"VEC4"
		}
	],
	"bufferViews":[
		{
			"buffer":0,
			"byteLength":5532,
			"byteOffset":0,
			"target":34962
		},
		{
			"buffer":0,
			"byteLength":5532,
			"byteOffset":5532,
			"target":34962
		},
		{
			"buffer":0,
			"byteLength":3688,
			"byteOffset":11064,
			"target":34962
		},
		{
			"buffer":0,
			"byteLength":4608,
			"byteOffset":14752,
			"target":34963
		},
		{
			"buffer":0,
			"byteLength":12828,
			"byteOffset":19360,
			"target":34962
		},
		{
			"buffer":0,
			"byteLength":12828,
			"byteOffset":32188,
			"target":34962
		},
		{
			"buffer":0,
			"byteLength":8552,
			"byteOffset":45016,
			"target":34962
		},
		{
			"buffer":0,
			"byteLength":8892,
			"byteOffset":53568,
			"target":34963
		},
		{
			"buffer":0,
			"byteLength":144,
			"byteOffset":62460,
			"target":34962
		},
		{
			"buffer":0,
			"byteLength":144,
			"byteOffset":62604,
			"target":34962
		},
		{
			"buffer":0,
			"byteLength":96,
			"byteOffset":62748,
			"target":34962
		},
		{
			"buffer":0,
			"byteLength":108,
			"byteOffset":62844,
			"target":34963
		},
		{
			"buffer":0,
			"byteLength":552,
			"byteOffset":62952,
			"target":34962
		},
		{
			"buffer":0,
			"byteLength":552,
			"byteOffset":63504,
			"target":34962
		},
		{
			"buffer":0,
			"byteLength":368,
			"byteOffset":64056,
			"target":34962
		},
		{
			"buffer":0,
			"byteLength":444,
			"byteOffset":64424,
			"target":34963
		},
		{
			"buffer":0,
			"byteLength":552,
			"byteOffset":64868,
			"target":34962
		},
		{
			"buffer":0,
			"byteLength":552,
			"byteOffset":65420,
			"target":34962
		},
		{
			"buffer":0,
			"byteLength":368,
			"byteOffset":65972,
			"target":34962
		},
		{
			"buffer":0,
			"byteLength":444,
			"byteOffset":66340,
			"target":34963
		},
		{
			"buffer":0,
			"byteLength":144,
			"byteOffset":66784,
			"target":34962
		},
		{
			"buffer":0,
			"byteLength":144,
			"byteOffset":66928,
			"target":34962
		},
		{
			"buffer":0,
			"byteLength":96,
			"byteOffset":67072,
			"target":34962
		},
		{
			"buffer":0,
			"byteLength":108,
			"byteOffset":67168,
			"target":34963
		},
		{
			"buffer":0,
			"byteLength":8,
			"byteOffset":67276
		},
		{
			"buffer":0,
			"byteLength":24,
			"byteOffset":67284
		},
		{
			"buffer":0,
			"byteLength":116,
			"byteOffset":67308
		},
		{
			"buffer":0,
			"byteLength":464,
			"byteOffset":67424
		},
		{
			"buffer":0,
			"byteLength":24,
			"byteOffset":67888
		},
		{
			"buffer":0,
			"byteLength":224,
			"byteOffset":67912
		},
		{
			"buffer":0,
			"byteLength":672,
			"byteOffset":68136
		},
		{
			"buffer":0,
			"byteLength":896,
			"byteOffset":68808
		},
		{
			"buffer":0,
			"byteLength":672,
			"byteOffset":69704
		},
		{
			"buffer":0,
			"byteLength":164,
			"byteOffset":70376
		},
		{
			"buffer":0,
			"byteLength":656,
			"byteOffset":70540
		},
		{
			"buffer":0,
			"byteLength":656,
			"byteOffset":71196
		}
	],
	"samplers":[
		{
			"magFilter":9729,
			"minFilter":9987
		}
	],
	"buffers":[
		{
			"byteLength":71852,
			"uri":"tablet_02.bin"
		}
	]
}
