{
	"asset":{
		"generator":"Khronos glTF Blender I/O v4.1.62",
		"version":"2.0"
	},
	"scene":0,
	"scenes":[
		{
			"name":"Scene",
			"nodes":[
				0
			]
		}
	],
	"nodes":[
		{
			"mesh":0,
			"name":"Clay_tablet"
		}
	],
	"materials":[
		{
			"doubleSided":true,
			"name":"Material_clay_tablet",
			"normalTexture":{
				"index":0
			},
			"pbrMetallicRoughness":{
				"baseColorTexture":{
					"index":1
				},
				"metallicFactor":0,
				"roughnessFactor":0.8999999761581421
			}
		}
	],
	"meshes":[
		{
			"name":"Cube",
			"primitives":[
				{
					"attributes":{
						"POSITION":0,
						"NORMAL":1,
						"TEXCOORD_0":2
					},
					"indices":3,
					"material":0
				}
			]
		}
	],
	"textures":[
		{
			"sampler":0,
			"source":0
		},
		{
			"sampler":0,
			"source":1
		}
	],
	"images":[
		{
			"mimeType":"image/png",
			"name":"Material_bump_texture.",
			"uri":"Material_bump_texture_.png"
		},
		{
			"mimeType":"image/png",
			"name":"Material_base_texture",
			"uri":"Material_base_texture.png"
		}
	],
	"accessors":[
		{
			"bufferView":0,
			"componentType":5126,
			"count":786,
			"max":[
				0.13005046546459198,
				1.9665634632110596,
				0.6453020572662354
			],
			"min":[
				-0.12330298870801926,
				0.010895218700170517,
				-0.6358566880226135
			],
			"type":"VEC3"
		},
		{
			"bufferView":1,
			"componentType":5126,
			"count":786,
			"type":"VEC3"
		},
		{
			"bufferView":2,
			"componentType":5126,
			"count":786,
			"type":"VEC2"
		},
		{
			"bufferView":3,
			"componentType":5123,
			"count":4308,
			"type":"SCALAR"
		}
	],
	"bufferViews":[
		{
			"buffer":0,
			"byteLength":9432,
			"byteOffset":0,
			"target":34962
		},
		{
			"buffer":0,
			"byteLength":9432,
			"byteOffset":9432,
			"target":34962
		},
		{
			"buffer":0,
			"byteLength":6288,
			"byteOffset":18864,
			"target":34962
		},
		{
			"buffer":0,
			"byteLength":8616,
			"byteOffset":25152,
			"target":34963
		}
	],
	"samplers":[
		{
			"magFilter":9729,
			"minFilter":9987
		}
	],
	"buffers":[
		{
			"byteLength":33768,
			"uri":"Clay_tablet.bin"
		}
	]
}
