{
	"asset":{
		"generator":"Khronos glTF Blender I/O v4.3.12",
		"version":"2.0"
	},
	"scene":0,
	"scenes":[
		{
			"name":"Scene",
			"nodes":[
				1,
				3
			]
		}
	],
	"nodes":[
		{
			"mesh":0,
			"name":"Birch_bark_manuscript_pen_mesh",
			"rotation":[
				0.08922933787107468,
				0.176706001162529,
				0.9400797486305237,
				0.27760252356529236
			],
			"scale":[
				20.602062225341797,
				20.602062225341797,
				20.602062225341797
			]
		},
		{
			"children":[
				0
			],
			"name":"Empty",
			"rotation":[
				0,
				0,
				0.9882927536964417,
				0.1525699645280838
			],
			"scale":[
				0.04853883013129234,
				0.04853883013129234,
				0.048538826406002045
			],
			"translation":[
				-0.4119316339492798,
				0.37859347462654114,
				0.004893165081739426
			]
		},
		{
			"mesh":1,
			"name":"Birch_bark_manuscript_main_mesh"
		},
		{
			"children":[
				2
			],
			"name":"Birch_bark_manuscript_null_mesh"
		}
	],
	"animations":[
		{
			"channels":[
				{
					"sampler":0,
					"target":{
						"node":1,
						"path":"translation"
					}
				},
				{
					"sampler":1,
					"target":{
						"node":1,
						"path":"rotation"
					}
				}
			],
			"name":"Action",
			"samplers":[
				{
					"input":8,
					"interpolation":"LINEAR",
					"output":9
				},
				{
					"input":10,
					"interpolation":"LINEAR",
					"output":11
				}
			]
		},
		{
			"channels":[
				{
					"sampler":0,
					"target":{
						"node":0,
						"path":"translation"
					}
				},
				{
					"sampler":1,
					"target":{
						"node":0,
						"path":"rotation"
					}
				}
			],
			"name":"Action.001",
			"samplers":[
				{
					"input":10,
					"interpolation":"LINEAR",
					"output":12
				},
				{
					"input":8,
					"interpolation":"LINEAR",
					"output":13
				}
			]
		}
	],
	"materials":[
		{
			"doubleSided":true,
			"name":"Birch_bark_manuscript_pen_material",
			"pbrMetallicRoughness":{
				"baseColorTexture":{
					"index":0
				},
				"metallicFactor":0
			}
		},
		{
			"alphaMode":"BLEND",
			"doubleSided":true,
			"name":"Birch_bark_manuscript_main_meshBirch_bark_manuscript_main_mater",
			"pbrMetallicRoughness":{
				"baseColorTexture":{
					"index":1
				},
				"metallicFactor":0
			}
		}
	],
	"meshes":[
		{
			"name":"Birch_bark_manuscript_pen_mesh",
			"primitives":[
				{
					"attributes":{
						"POSITION":0,
						"NORMAL":1,
						"TEXCOORD_0":2
					},
					"indices":3,
					"material":0
				}
			]
		},
		{
			"name":"Birch_bark_manuscript_main_meshBirch_bark_manuscript_main_mesh",
			"primitives":[
				{
					"attributes":{
						"POSITION":4,
						"NORMAL":5,
						"TEXCOORD_0":6
					},
					"indices":7,
					"material":1
				}
			]
		}
	],
	"textures":[
		{
			"sampler":0,
			"source":0
		},
		{
			"sampler":0,
			"source":1
		}
	],
	"images":[
		{
			"mimeType":"image/png",
			"name":"Birch_bark_manuscript_pen_BaceColor",
			"uri":"Birch_bark_manuscript_pen_BaceColor.png"
		},
		{
			"mimeType":"image/png",
			"name":"Birch_bark_manuscript_main_BaceColor_001",
			"uri":"Birch_bark_manuscript_main_BaceColor_001.png"
		}
	],
	"accessors":[
		{
			"bufferView":0,
			"componentType":5126,
			"count":816,
			"max":[
				0.8431189060211182,
				0.38163989782333374,
				0.016138501465320587
			],
			"min":[
				-0.00017210841178894043,
				-0.0010969191789627075,
				-0.016128528863191605
			],
			"type":"VEC3"
		},
		{
			"bufferView":1,
			"componentType":5126,
			"count":816,
			"type":"VEC3"
		},
		{
			"bufferView":2,
			"componentType":5126,
			"count":816,
			"type":"VEC2"
		},
		{
			"bufferView":3,
			"componentType":5123,
			"count":1212,
			"type":"SCALAR"
		},
		{
			"bufferView":4,
			"componentType":5126,
			"count":330,
			"max":[
				0.6185243129730225,
				0.5153570771217346,
				3.724522912307293e-08
			],
			"min":[
				-0.6121484041213989,
				-0.5068070888519287,
				-0.07670439034700394
			],
			"type":"VEC3"
		},
		{
			"bufferView":5,
			"componentType":5126,
			"count":330,
			"type":"VEC3"
		},
		{
			"bufferView":6,
			"componentType":5126,
			"count":330,
			"type":"VEC2"
		},
		{
			"bufferView":7,
			"componentType":5123,
			"count":648,
			"type":"SCALAR"
		},
		{
			"bufferView":8,
			"componentType":5126,
			"count":200,
			"max":[
				8.333333333333334
			],
			"min":[
				0.041666666666666664
			],
			"type":"SCALAR"
		},
		{
			"bufferView":9,
			"componentType":5126,
			"count":200,
			"type":"VEC3"
		},
		{
			"bufferView":10,
			"componentType":5126,
			"count":2,
			"max":[
				8.333333333333334
			],
			"min":[
				0.041666666666666664
			],
			"type":"SCALAR"
		},
		{
			"bufferView":11,
			"componentType":5126,
			"count":2,
			"type":"VEC4"
		},
		{
			"bufferView":12,
			"componentType":5126,
			"count":2,
			"type":"VEC3"
		},
		{
			"bufferView":13,
			"componentType":5126,
			"count":200,
			"type":"VEC4"
		}
	],
	"bufferViews":[
		{
			"buffer":0,
			"byteLength":9792,
			"byteOffset":0,
			"target":34962
		},
		{
			"buffer":0,
			"byteLength":9792,
			"byteOffset":9792,
			"target":34962
		},
		{
			"buffer":0,
			"byteLength":6528,
			"byteOffset":19584,
			"target":34962
		},
		{
			"buffer":0,
			"byteLength":2424,
			"byteOffset":26112,
			"target":34963
		},
		{
			"buffer":0,
			"byteLength":3960,
			"byteOffset":28536,
			"target":34962
		},
		{
			"buffer":0,
			"byteLength":3960,
			"byteOffset":32496,
			"target":34962
		},
		{
			"buffer":0,
			"byteLength":2640,
			"byteOffset":36456,
			"target":34962
		},
		{
			"buffer":0,
			"byteLength":1296,
			"byteOffset":39096,
			"target":34963
		},
		{
			"buffer":0,
			"byteLength":800,
			"byteOffset":40392
		},
		{
			"buffer":0,
			"byteLength":2400,
			"byteOffset":41192
		},
		{
			"buffer":0,
			"byteLength":8,
			"byteOffset":43592
		},
		{
			"buffer":0,
			"byteLength":32,
			"byteOffset":43600
		},
		{
			"buffer":0,
			"byteLength":24,
			"byteOffset":43632
		},
		{
			"buffer":0,
			"byteLength":3200,
			"byteOffset":43656
		}
	],
	"samplers":[
		{
			"magFilter":9729,
			"minFilter":9987
		}
	],
	"buffers":[
		{
			"byteLength":46856,
			"uri":"Birch_bark_manuscript.bin"
		}
	]
}
