{
	"asset":{
		"generator":"Khronos glTF Blender I/O v4.3.12",
		"version":"2.0"
	},
	"scene":0,
	"scenes":[
		{
			"name":"Scene",
			"nodes":[
				17
			]
		}
	],
	"nodes":[
		{
			"mesh":0,
			"name":"Phonograph_record_mesh_001"
		},
		{
			"mesh":1,
			"name":"Phonograph_record_mesh_002"
		},
		{
			"mesh":2,
			"name":"Phonograph_record_mesh_003"
		},
		{
			"mesh":3,
			"name":"Phonograph_record_mesh_004"
		},
		{
			"mesh":4,
			"name":"Phonograph_record_mesh_007"
		},
		{
			"children":[
				4
			],
			"name":"Phonograph_record_mesh_007_null",
			"scale":[
				0.026231717318296432,
				0.026231713593006134,
				0.026231717318296432
			],
			"translation":[
				0.38554537296295166,
				-0.42633289098739624,
				0.21439778804779053
			]
		},
		{
			"mesh":5,
			"name":"Phonograph_record_mesh_008"
		},
		{
			"children":[
				6
			],
			"name":"Phonograph_record_mesh_008_null",
			"rotation":[
				0.26890239119529724,
				0.0029155376832932234,
				0.0008139789570122957,
				0.9631626605987549
			],
			"scale":[
				0.026231704279780388,
				0.026231713593006134,
				0.026231711730360985
			],
			"translation":[
				0.3850680887699127,
				-0.3854968249797821,
				0.14696428179740906
			]
		},
		{
			"mesh":6,
			"name":"Phonograph_record_mesh_009"
		},
		{
			"children":[
				8
			],
			"name":"Phonograph_record_mesh_009_null",
			"scale":[
				0.026231704279780388,
				0.026231713593006134,
				0.02623172104358673
			],
			"translation":[
				0.30259379744529724,
				-0.28011995553970337,
				-0.017998341470956802
			]
		},
		{
			"mesh":7,
			"name":"Phonograph_record_mesh_010"
		},
		{
			"children":[
				10
			],
			"name":"Phonograph_record_mesh_010_null",
			"scale":[
				0.02623174712061882,
				0.02623174712061882,
				0.026231715455651283
			],
			"translation":[
				0.2810617983341217,
				-0.3591569662094116,
				0.1995696723461151
			]
		},
		{
			"mesh":8,
			"name":"Phonograph_record_mesh_005"
		},
		{
			"children":[
				12
			],
			"name":"Phonograph_record_mesh_005_null",
			"translation":[
				9.843914031982422,
				9.360925674438477,
				-9.954567909240723
			]
		},
		{
			"mesh":9,
			"name":"Phonograph_record_mesh_006"
		},
		{
			"children":[
				14
			],
			"name":"Phonograph_record_mesh_006_null",
			"scale":[
				1.2129637002944946,
				1.2129638195037842,
				1.2129637002944946
			],
			"translation":[
				-6.010239601135254,
				8.441673278808594,
				-0.3820704519748688
			]
		},
		{
			"children":[
				13,
				15
			],
			"name":"Phonograph_record_null_5_6",
			"rotation":[
				0.2689023017883301,
				0.0029155376832932234,
				0.0008139788988046348,
				0.9631626605987549
			],
			"scale":[
				0.026231711730360985,
				0.026231717318296432,
				0.026231715455651283
			],
			"translation":[
				0.00031928945099934936,
				-0.5137299299240112,
				0.0010756232077255845
			]
		},
		{
			"children":[
				0,
				1,
				2,
				3,
				5,
				7,
				9,
				11,
				16
			],
			"name":"Phonograph_record_mesh_Empty"
		}
	],
	"animations":[
		{
			"channels":[
				{
					"sampler":0,
					"target":{
						"node":5,
						"path":"rotation"
					}
				},
				{
					"sampler":1,
					"target":{
						"node":9,
						"path":"rotation"
					}
				},
				{
					"sampler":2,
					"target":{
						"node":11,
						"path":"rotation"
					}
				},
				{
					"sampler":3,
					"target":{
						"node":13,
						"path":"rotation"
					}
				},
				{
					"sampler":4,
					"target":{
						"node":15,
						"path":"rotation"
					}
				},
				{
					"sampler":5,
					"target":{
						"node":15,
						"path":"scale"
					}
				}
			],
			"name":"#StandWithUkraine",
			"samplers":[
				{
					"input":39,
					"interpolation":"LINEAR",
					"output":40
				},
				{
					"input":41,
					"interpolation":"LINEAR",
					"output":42
				},
				{
					"input":43,
					"interpolation":"LINEAR",
					"output":44
				},
				{
					"input":41,
					"interpolation":"LINEAR",
					"output":45
				},
				{
					"input":39,
					"interpolation":"LINEAR",
					"output":46
				},
				{
					"input":47,
					"interpolation":"LINEAR",
					"output":48
				}
			]
		}
	],
	"materials":[
		{
			"doubleSided":true,
			"name":"Phonograph_record_mesh_003_material",
			"normalTexture":{
				"index":0
			},
			"pbrMetallicRoughness":{
				"baseColorTexture":{
					"index":1
				},
				"metallicRoughnessTexture":{
					"index":2
				}
			}
		},
		{
			"doubleSided":true,
			"name":"Phonograph_record_mesh_002_material",
			"normalTexture":{
				"index":3
			},
			"pbrMetallicRoughness":{
				"baseColorTexture":{
					"index":4
				},
				"metallicRoughnessTexture":{
					"index":5
				}
			}
		},
		{
			"doubleSided":true,
			"name":"Phonograph_record_mesh_004_material",
			"pbrMetallicRoughness":{
				"baseColorTexture":{
					"index":6
				},
				"metallicFactor":0,
				"roughnessFactor":0.6000000238418579
			}
		},
		{
			"alphaMode":"BLEND",
			"doubleSided":true,
			"name":"Phonograph_record_mesh_006_material",
			"normalTexture":{
				"index":7
			},
			"pbrMetallicRoughness":{
				"baseColorTexture":{
					"index":8
				},
				"metallicFactor":0,
				"metallicRoughnessTexture":{
					"index":9
				}
			}
		}
	],
	"meshes":[
		{
			"name":"Phonograph_record_mesh_001",
			"primitives":[
				{
					"attributes":{
						"POSITION":0,
						"NORMAL":1,
						"TEXCOORD_0":2
					},
					"indices":3,
					"material":0
				}
			]
		},
		{
			"name":"Phonograph_record_mesh_002",
			"primitives":[
				{
					"attributes":{
						"POSITION":4,
						"NORMAL":5,
						"TEXCOORD_0":6
					},
					"indices":7,
					"material":1
				}
			]
		},
		{
			"name":"Phonograph_record_mesh_003",
			"primitives":[
				{
					"attributes":{
						"POSITION":8,
						"NORMAL":9,
						"TEXCOORD_0":10
					},
					"indices":11,
					"material":0
				}
			]
		},
		{
			"name":"Phonograph_record_mesh_004",
			"primitives":[
				{
					"attributes":{
						"POSITION":12,
						"NORMAL":13,
						"TEXCOORD_0":14
					},
					"indices":15,
					"material":2
				}
			]
		},
		{
			"name":"Phonograph_record_mesh_007",
			"primitives":[
				{
					"attributes":{
						"POSITION":16,
						"NORMAL":17,
						"TEXCOORD_0":18
					},
					"indices":19,
					"material":1
				}
			]
		},
		{
			"name":"Phonograph_record_mesh_008",
			"primitives":[
				{
					"attributes":{
						"POSITION":20,
						"NORMAL":21,
						"TEXCOORD_0":22
					},
					"indices":23,
					"material":1
				}
			]
		},
		{
			"name":"Phonograph_record_mesh_009",
			"primitives":[
				{
					"attributes":{
						"POSITION":24,
						"NORMAL":25,
						"TEXCOORD_0":26
					},
					"indices":27,
					"material":1
				}
			]
		},
		{
			"name":"Phonograph_record_mesh_010",
			"primitives":[
				{
					"attributes":{
						"POSITION":28,
						"NORMAL":29,
						"TEXCOORD_0":30
					},
					"indices":31,
					"material":1
				}
			]
		},
		{
			"name":"Phonograph_record_mesh_005",
			"primitives":[
				{
					"attributes":{
						"POSITION":32,
						"NORMAL":33,
						"TEXCOORD_0":34
					},
					"indices":35,
					"material":1
				}
			]
		},
		{
			"name":"Phonograph_record_mesh_006",
			"primitives":[
				{
					"attributes":{
						"POSITION":36,
						"NORMAL":37,
						"TEXCOORD_0":38
					},
					"indices":15,
					"material":3
				}
			]
		}
	],
	"textures":[
		{
			"sampler":0,
			"source":0
		},
		{
			"sampler":0,
			"source":1
		},
		{
			"sampler":0,
			"source":2
		},
		{
			"sampler":0,
			"source":3
		},
		{
			"sampler":0,
			"source":4
		},
		{
			"sampler":0,
			"source":5
		},
		{
			"sampler":0,
			"source":6
		},
		{
			"sampler":0,
			"source":7
		},
		{
			"sampler":0,
			"source":8
		},
		{
			"sampler":0,
			"source":9
		}
	],
	"images":[
		{
			"mimeType":"image/png",
			"name":"Phonograph_record_mesh_001_Normal",
			"uri":"Phonograph_record_mesh_001_Normal.png"
		},
		{
			"mimeType":"image/png",
			"name":"Phonograph_record_mesh_001_BaceColor",
			"uri":"Phonograph_record_mesh_001_BaceColor.png"
		},
		{
			"mimeType":"image/png",
			"name":"Phonograph_record_mesh_001_Roughness",
			"uri":"Phonograph_record_mesh_001_Roughness.png"
		},
		{
			"mimeType":"image/png",
			"name":"Phonograph_record_mesh_002_Normal",
			"uri":"Phonograph_record_mesh_002_Normal.png"
		},
		{
			"mimeType":"image/png",
			"name":"Phonograph_record_mesh_002_BaceColor",
			"uri":"Phonograph_record_mesh_002_BaceColor.png"
		},
		{
			"mimeType":"image/png",
			"name":"Phonograph_record_mesh_002_Roughness",
			"uri":"Phonograph_record_mesh_002_Roughness.png"
		},
		{
			"mimeType":"image/png",
			"name":"Phonograph_record_mesh_004_BaceColor",
			"uri":"Phonograph_record_mesh_004_BaceColor.png"
		},
		{
			"mimeType":"image/png",
			"name":"Phonograph_record_mesh_006_Normal",
			"uri":"Phonograph_record_mesh_006_Normal.png"
		},
		{
			"mimeType":"image/png",
			"name":"Phonograph_record_mesh_006_BaceColor",
			"uri":"Phonograph_record_mesh_006_BaceColor.png"
		},
		{
			"mimeType":"image/png",
			"name":"Phonograph_record_mesh_006_Roughness",
			"uri":"Phonograph_record_mesh_006_Roughness.png"
		}
	],
	"accessors":[
		{
			"bufferView":0,
			"componentType":5126,
			"count":2127,
			"max":[
				0.46526724100112915,
				0.5600104331970215,
				-0.025993119925260544
			],
			"min":[
				-0.47097429633140564,
				-0.17402851581573486,
				-0.3102726340293884
			],
			"type":"VEC3"
		},
		{
			"bufferView":1,
			"componentType":5126,
			"count":2127,
			"type":"VEC3"
		},
		{
			"bufferView":2,
			"componentType":5126,
			"count":2127,
			"type":"VEC2"
		},
		{
			"bufferView":3,
			"componentType":5123,
			"count":4914,
			"type":"SCALAR"
		},
		{
			"bufferView":4,
			"componentType":5126,
			"count":3080,
			"max":[
				0.4093797206878662,
				-0.15161657333374023,
				0.3402661681175232
			],
			"min":[
				-0.4336247742176056,
				-0.48280972242355347,
				-0.17107036709785461
			],
			"type":"VEC3"
		},
		{
			"bufferView":5,
			"componentType":5126,
			"count":3080,
			"type":"VEC3"
		},
		{
			"bufferView":6,
			"componentType":5126,
			"count":3080,
			"type":"VEC2"
		},
		{
			"bufferView":7,
			"componentType":5123,
			"count":8979,
			"type":"SCALAR"
		},
		{
			"bufferView":8,
			"componentType":5126,
			"count":3426,
			"max":[
				0.46973612904548645,
				-0.16360622644424438,
				0.4069150686264038
			],
			"min":[
				-0.4690975248813629,
				-0.6893756985664368,
				-0.2811586260795593
			],
			"type":"VEC3"
		},
		{
			"bufferView":9,
			"componentType":5126,
			"count":3426,
			"type":"VEC3"
		},
		{
			"bufferView":10,
			"componentType":5126,
			"count":3426,
			"type":"VEC2"
		},
		{
			"bufferView":11,
			"componentType":5123,
			"count":9402,
			"type":"SCALAR"
		},
		{
			"bufferView":12,
			"componentType":5126,
			"count":4,
			"max":[
				0.41506466269493103,
				0.6694691181182861,
				0.042649026960134506
			],
			"min":[
				-0.4206039309501648,
				-0.10839375853538513,
				-0.2714831233024597
			],
			"type":"VEC3"
		},
		{
			"bufferView":13,
			"componentType":5126,
			"count":4,
			"type":"VEC3"
		},
		{
			"bufferView":14,
			"componentType":5126,
			"count":4,
			"type":"VEC2"
		},
		{
			"bufferView":15,
			"componentType":5123,
			"count":6,
			"type":"SCALAR"
		},
		{
			"bufferView":16,
			"componentType":5126,
			"count":145,
			"max":[
				0.8817644119262695,
				1.3803679943084717,
				1.298153281211853
			],
			"min":[
				-0.8817644119262695,
				-0.3150315284729004,
				-0.671184241771698
			],
			"type":"VEC3"
		},
		{
			"bufferView":17,
			"componentType":5126,
			"count":145,
			"type":"VEC3"
		},
		{
			"bufferView":18,
			"componentType":5126,
			"count":145,
			"type":"VEC2"
		},
		{
			"bufferView":19,
			"componentType":5123,
			"count":420,
			"type":"SCALAR"
		},
		{
			"bufferView":20,
			"componentType":5126,
			"count":165,
			"max":[
				0.8709087371826172,
				1.090367317199707,
				0.8709092140197754
			],
			"min":[
				-0.8709087371826172,
				0,
				-0.8709092140197754
			],
			"type":"VEC3"
		},
		{
			"bufferView":21,
			"componentType":5126,
			"count":165,
			"type":"VEC3"
		},
		{
			"bufferView":22,
			"componentType":5126,
			"count":165,
			"type":"VEC2"
		},
		{
			"bufferView":23,
			"componentType":5123,
			"count":540,
			"type":"SCALAR"
		},
		{
			"bufferView":24,
			"componentType":5126,
			"count":154,
			"max":[
				0.17666387557983398,
				2.2988152503967285,
				2.049689769744873
			],
			"min":[
				-0.17666387557983398,
				-0.06572341918945312,
				-0.07569122314453125
			],
			"type":"VEC3"
		},
		{
			"bufferView":25,
			"componentType":5126,
			"count":154,
			"type":"VEC3"
		},
		{
			"bufferView":26,
			"componentType":5126,
			"count":154,
			"type":"VEC2"
		},
		{
			"bufferView":27,
			"componentType":5123,
			"count":396,
			"type":"SCALAR"
		},
		{
			"bufferView":28,
			"componentType":5126,
			"count":337,
			"max":[
				0.16495513916015625,
				1.0297167301177979,
				0.1299222707748413
			],
			"min":[
				-1.0246448516845703,
				-0.21297530829906464,
				-0.1299222707748413
			],
			"type":"VEC3"
		},
		{
			"bufferView":29,
			"componentType":5126,
			"count":337,
			"type":"VEC3"
		},
		{
			"bufferView":30,
			"componentType":5126,
			"count":337,
			"type":"VEC2"
		},
		{
			"bufferView":31,
			"componentType":5123,
			"count":1296,
			"type":"SCALAR"
		},
		{
			"bufferView":32,
			"componentType":5126,
			"count":1347,
			"max":[
				2.599072217941284,
				0.8358211517333984,
				21.828094482421875
			],
			"min":[
				-1.9900697469711304,
				-0.8358211517333984,
				-1.9857136011123657
			],
			"type":"VEC3"
		},
		{
			"bufferView":33,
			"componentType":5126,
			"count":1347,
			"type":"VEC3"
		},
		{
			"bufferView":34,
			"componentType":5126,
			"count":1347,
			"type":"VEC2"
		},
		{
			"bufferView":35,
			"componentType":5123,
			"count":4077,
			"type":"SCALAR"
		},
		{
			"bufferView":36,
			"componentType":5126,
			"count":4,
			"max":[
				12.55783748626709,
				-3.7945986264276144e-07,
				12.55783748626709
			],
			"min":[
				-12.55783748626709,
				-3.7945986264276144e-07,
				-12.55783748626709
			],
			"type":"VEC3"
		},
		{
			"bufferView":37,
			"componentType":5126,
			"count":4,
			"type":"VEC3"
		},
		{
			"bufferView":38,
			"componentType":5126,
			"count":4,
			"type":"VEC2"
		},
		{
			"bufferView":39,
			"componentType":5126,
			"count":6899,
			"max":[
				115
			],
			"min":[
				0.03333333333333333
			],
			"type":"SCALAR"
		},
		{
			"bufferView":40,
			"componentType":5126,
			"count":6899,
			"type":"VEC4"
		},
		{
			"bufferView":41,
			"componentType":5126,
			"count":6539,
			"max":[
				109
			],
			"min":[
				0.03333333333333333
			],
			"type":"SCALAR"
		},
		{
			"bufferView":42,
			"componentType":5126,
			"count":6539,
			"type":"VEC4"
		},
		{
			"bufferView":43,
			"componentType":5126,
			"count":6719,
			"max":[
				112
			],
			"min":[
				0.03333333333333333
			],
			"type":"SCALAR"
		},
		{
			"bufferView":44,
			"componentType":5126,
			"count":6719,
			"type":"VEC4"
		},
		{
			"bufferView":45,
			"componentType":5126,
			"count":6539,
			"type":"VEC4"
		},
		{
			"bufferView":46,
			"componentType":5126,
			"count":6899,
			"type":"VEC4"
		},
		{
			"bufferView":47,
			"componentType":5126,
			"count":2,
			"max":[
				115
			],
			"min":[
				0.03333333333333333
			],
			"type":"SCALAR"
		},
		{
			"bufferView":48,
			"componentType":5126,
			"count":2,
			"type":"VEC3"
		}
	],
	"bufferViews":[
		{
			"buffer":0,
			"byteLength":25524,
			"byteOffset":0,
			"target":34962
		},
		{
			"buffer":0,
			"byteLength":25524,
			"byteOffset":25524,
			"target":34962
		},
		{
			"buffer":0,
			"byteLength":17016,
			"byteOffset":51048,
			"target":34962
		},
		{
			"buffer":0,
			"byteLength":9828,
			"byteOffset":68064,
			"target":34963
		},
		{
			"buffer":0,
			"byteLength":36960,
			"byteOffset":77892,
			"target":34962
		},
		{
			"buffer":0,
			"byteLength":36960,
			"byteOffset":114852,
			"target":34962
		},
		{
			"buffer":0,
			"byteLength":24640,
			"byteOffset":151812,
			"target":34962
		},
		{
			"buffer":0,
			"byteLength":17958,
			"byteOffset":176452,
			"target":34963
		},
		{
			"buffer":0,
			"byteLength":41112,
			"byteOffset":194412,
			"target":34962
		},
		{
			"buffer":0,
			"byteLength":41112,
			"byteOffset":235524,
			"target":34962
		},
		{
			"buffer":0,
			"byteLength":27408,
			"byteOffset":276636,
			"target":34962
		},
		{
			"buffer":0,
			"byteLength":18804,
			"byteOffset":304044,
			"target":34963
		},
		{
			"buffer":0,
			"byteLength":48,
			"byteOffset":322848,
			"target":34962
		},
		{
			"buffer":0,
			"byteLength":48,
			"byteOffset":322896,
			"target":34962
		},
		{
			"buffer":0,
			"byteLength":32,
			"byteOffset":322944,
			"target":34962
		},
		{
			"buffer":0,
			"byteLength":12,
			"byteOffset":322976,
			"target":34963
		},
		{
			"buffer":0,
			"byteLength":1740,
			"byteOffset":322988,
			"target":34962
		},
		{
			"buffer":0,
			"byteLength":1740,
			"byteOffset":324728,
			"target":34962
		},
		{
			"buffer":0,
			"byteLength":1160,
			"byteOffset":326468,
			"target":34962
		},
		{
			"buffer":0,
			"byteLength":840,
			"byteOffset":327628,
			"target":34963
		},
		{
			"buffer":0,
			"byteLength":1980,
			"byteOffset":328468,
			"target":34962
		},
		{
			"buffer":0,
			"byteLength":1980,
			"byteOffset":330448,
			"target":34962
		},
		{
			"buffer":0,
			"byteLength":1320,
			"byteOffset":332428,
			"target":34962
		},
		{
			"buffer":0,
			"byteLength":1080,
			"byteOffset":333748,
			"target":34963
		},
		{
			"buffer":0,
			"byteLength":1848,
			"byteOffset":334828,
			"target":34962
		},
		{
			"buffer":0,
			"byteLength":1848,
			"byteOffset":336676,
			"target":34962
		},
		{
			"buffer":0,
			"byteLength":1232,
			"byteOffset":338524,
			"target":34962
		},
		{
			"buffer":0,
			"byteLength":792,
			"byteOffset":339756,
			"target":34963
		},
		{
			"buffer":0,
			"byteLength":4044,
			"byteOffset":340548,
			"target":34962
		},
		{
			"buffer":0,
			"byteLength":4044,
			"byteOffset":344592,
			"target":34962
		},
		{
			"buffer":0,
			"byteLength":2696,
			"byteOffset":348636,
			"target":34962
		},
		{
			"buffer":0,
			"byteLength":2592,
			"byteOffset":351332,
			"target":34963
		},
		{
			"buffer":0,
			"byteLength":16164,
			"byteOffset":353924,
			"target":34962
		},
		{
			"buffer":0,
			"byteLength":16164,
			"byteOffset":370088,
			"target":34962
		},
		{
			"buffer":0,
			"byteLength":10776,
			"byteOffset":386252,
			"target":34962
		},
		{
			"buffer":0,
			"byteLength":8154,
			"byteOffset":397028,
			"target":34963
		},
		{
			"buffer":0,
			"byteLength":48,
			"byteOffset":405184,
			"target":34962
		},
		{
			"buffer":0,
			"byteLength":48,
			"byteOffset":405232,
			"target":34962
		},
		{
			"buffer":0,
			"byteLength":32,
			"byteOffset":405280,
			"target":34962
		},
		{
			"buffer":0,
			"byteLength":27596,
			"byteOffset":405312
		},
		{
			"buffer":0,
			"byteLength":110384,
			"byteOffset":432908
		},
		{
			"buffer":0,
			"byteLength":26156,
			"byteOffset":543292
		},
		{
			"buffer":0,
			"byteLength":104624,
			"byteOffset":569448
		},
		{
			"buffer":0,
			"byteLength":26876,
			"byteOffset":674072
		},
		{
			"buffer":0,
			"byteLength":107504,
			"byteOffset":700948
		},
		{
			"buffer":0,
			"byteLength":104624,
			"byteOffset":808452
		},
		{
			"buffer":0,
			"byteLength":110384,
			"byteOffset":913076
		},
		{
			"buffer":0,
			"byteLength":8,
			"byteOffset":1023460
		},
		{
			"buffer":0,
			"byteLength":24,
			"byteOffset":1023468
		}
	],
	"samplers":[
		{
			"magFilter":9729,
			"minFilter":9987
		}
	],
	"buffers":[
		{
			"byteLength":1023492,
			"uri":"Phonograph_record.bin"
		}
	]
}
