{
	"asset":{
		"generator":"Khronos glTF Blender I/O v4.1.62",
		"version":"2.0"
	},
	"extensionsUsed":[
		"KHR_materials_specular",
		"KHR_materials_ior"
	],
	"scene":0,
	"scenes":[
		{
			"name":"Scene",
			"nodes":[
				0
			]
		}
	],
	"nodes":[
		{
			"mesh":0,
			"name":"Mesh_1",
			"rotation":[
				0.7071068286895752,
				0,
				0,
				0.7071068286895752
			]
		}
	],
	"materials":[
		{
			"doubleSided":true,
			"extensions":{
				"KHR_materials_specular":{
					"specularFactor":0
				},
				"KHR_materials_ior":{
					"ior":0
				}
			},
			"name":"Material_001",
			"normalTexture":{
				"index":0
			},
			"pbrMetallicRoughness":{
				"baseColorTexture":{
					"index":1
				},
				"metallicFactor":0,
				"roughnessFactor":0.8863636255264282
			}
		}
	],
	"meshes":[
		{
			"name":"Mesh_0.001",
			"primitives":[
				{
					"attributes":{
						"POSITION":0,
						"NORMAL":1,
						"TEXCOORD_0":2
					},
					"indices":3,
					"material":0
				}
			]
		}
	],
	"textures":[
		{
			"sampler":0,
			"source":0
		},
		{
			"sampler":0,
			"source":1
		}
	],
	"images":[
		{
			"mimeType":"image/png",
			"name":"Material_normal_texture",
			"uri":"Material_normal_texture.png"
		},
		{
			"mimeType":"image/png",
			"name":"Material_Color",
			"uri":"Material_Color.png"
		}
	],
	"accessors":[
		{
			"bufferView":0,
			"componentType":5126,
			"count":3930,
			"max":[
				0.5902100205421448,
				0.23513300716876984,
				0.36070552468299866
			],
			"min":[
				-0.5669055581092834,
				-0.23657946288585663,
				-0.3416549861431122
			],
			"type":"VEC3"
		},
		{
			"bufferView":1,
			"componentType":5126,
			"count":3930,
			"type":"VEC3"
		},
		{
			"bufferView":2,
			"componentType":5126,
			"count":3930,
			"type":"VEC2"
		},
		{
			"bufferView":3,
			"componentType":5123,
			"count":20202,
			"type":"SCALAR"
		}
	],
	"bufferViews":[
		{
			"buffer":0,
			"byteLength":47160,
			"byteOffset":0,
			"target":34962
		},
		{
			"buffer":0,
			"byteLength":47160,
			"byteOffset":47160,
			"target":34962
		},
		{
			"buffer":0,
			"byteLength":31440,
			"byteOffset":94320,
			"target":34962
		},
		{
			"buffer":0,
			"byteLength":40404,
			"byteOffset":125760,
			"target":34963
		}
	],
	"samplers":[
		{
			"magFilter":9729,
			"minFilter":9987
		}
	],
	"buffers":[
		{
			"byteLength":166164,
			"uri":"Cave_painting.bin"
		}
	]
}
