{
	"asset":{
		"generator":"Khronos glTF Blender I/O v4.1.62",
		"version":"2.0"
	},
	"scene":0,
	"scenes":[
		{
			"name":"Scene",
			"nodes":[
				0
			]
		}
	],
	"nodes":[
		{
			"mesh":0,
			"name":"Object_2"
		}
	],
	"materials":[
		{
			"doubleSided":true,
			"name":"material_0",
			"normalTexture":{
				"index":0
			},
			"occlusionTexture":{
				"index":1
			},
			"pbrMetallicRoughness":{
				"baseColorTexture":{
					"index":2
				},
				"metallicFactor":0,
				"metallicRoughnessTexture":{
					"index":1
				}
			}
		}
	],
	"meshes":[
		{
			"name":"Object_0",
			"primitives":[
				{
					"attributes":{
						"POSITION":0,
						"NORMAL":1,
						"TEXCOORD_0":2
					},
					"indices":3,
					"material":0
				}
			]
		}
	],
	"textures":[
		{
			"sampler":0,
			"source":0
		},
		{
			"sampler":0,
			"source":1
		},
		{
			"sampler":0,
			"source":2
		}
	],
	"images":[
		{
			"mimeType":"image/png",
			"name":"material_0_normal",
			"uri":"material_0_normal.png"
		},
		{
			"mimeType":"image/png",
			"name":"material_0_metallicRoughness",
			"uri":"material_0_metallicRoughness.png"
		},
		{
			"mimeType":"image/jpeg",
			"name":"material_0_baseColor",
			"uri":"material_0_baseColor.jpg"
		}
	],
	"accessors":[
		{
			"bufferView":0,
			"componentType":5126,
			"count":18364,
			"max":[
				1.9715347290039062,
				5.168972969055176,
				0.9611759781837463
			],
			"min":[
				-1.9170693159103394,
				-0.3470783829689026,
				-0.38035809993743896
			],
			"type":"VEC3"
		},
		{
			"bufferView":1,
			"componentType":5126,
			"count":18364,
			"type":"VEC3"
		},
		{
			"bufferView":2,
			"componentType":5126,
			"count":18364,
			"type":"VEC2"
		},
		{
			"bufferView":3,
			"componentType":5123,
			"count":86148,
			"type":"SCALAR"
		}
	],
	"bufferViews":[
		{
			"buffer":0,
			"byteLength":220368,
			"byteOffset":0,
			"target":34962
		},
		{
			"buffer":0,
			"byteLength":220368,
			"byteOffset":220368,
			"target":34962
		},
		{
			"buffer":0,
			"byteLength":146912,
			"byteOffset":440736,
			"target":34962
		},
		{
			"buffer":0,
			"byteLength":172296,
			"byteOffset":587648,
			"target":34963
		}
	],
	"samplers":[
		{
			"magFilter":9729,
			"minFilter":9987
		}
	],
	"buffers":[
		{
			"byteLength":759944,
			"uri":"Clay_tablet_001.bin"
		}
	]
}
