{
	"asset":{
		"generator":"Khronos glTF Blender I/O v4.1.62",
		"version":"2.0"
	},
	"scene":0,
	"scenes":[
		{
			"name":"Scene",
			"nodes":[
				0
			]
		}
	],
	"nodes":[
		{
			"mesh":0,
			"name":"Mesh_0"
		}
	],
	"materials":[
		{
			"name":"Material_0",
			"pbrMetallicRoughness":{
				"baseColorTexture":{
					"index":0
				},
				"metallicFactor":0
			}
		}
	],
	"meshes":[
		{
			"name":"Mesh_0",
			"primitives":[
				{
					"attributes":{
						"POSITION":0,
						"NORMAL":1,
						"TEXCOORD_0":2
					},
					"indices":3,
					"material":0
				}
			]
		}
	],
	"textures":[
		{
			"sampler":0,
			"source":0
		}
	],
	"images":[
		{
			"uri":"textures/1.png"
		}
	],
	"accessors":[
		{
			"bufferView":0,
			"componentType":5126,
			"count":1524,
			"max":[
				6.598043918609619,
				9.189632415771484,
				6.59591817855835
			],
			"min":[
				-6.598042964935303,
				-6.923145771026611,
				-6.59591817855835
			],
			"type":"VEC3"
		},
		{
			"bufferView":1,
			"componentType":5126,
			"count":1524,
			"type":"VEC3"
		},
		{
			"bufferView":2,
			"componentType":5126,
			"count":1524,
			"type":"VEC2"
		},
		{
			"bufferView":3,
			"componentType":5123,
			"count":1848,
			"type":"SCALAR"
		}
	],
	"bufferViews":[
		{
			"buffer":0,
			"byteLength":18288,
			"byteOffset":0,
			"target":34962
		},
		{
			"buffer":0,
			"byteLength":18288,
			"byteOffset":18288,
			"target":34962
		},
		{
			"buffer":0,
			"byteLength":12192,
			"byteOffset":36576,
			"target":34962
		},
		{
			"buffer":0,
			"byteLength":3696,
			"byteOffset":48768,
			"target":34963
		}
	],
	"samplers":[
		{
			"magFilter":9729,
			"minFilter":9987
		}
	],
	"buffers":[
		{
			"byteLength":52464,
			"uri":"seperate.bin"
		}
	]
}
