{
	"asset":{
		"generator":"Khronos glTF Blender I/O v4.3.12",
		"version":"2.0"
	},
	"extensionsUsed":[
		"KHR_materials_specular",
		"KHR_materials_ior"
	],
	"scene":0,
	"scenes":[
		{
			"name":"Scene",
			"nodes":[
				4
			]
		}
	],
	"nodes":[
		{
			"mesh":0,
			"name":"Wax_tablet_l_mesh",
			"rotation":[
				0,
				-0.7071068286895752,
				0,
				0.7071068286895752
			],
			"translation":[
				0.06548132747411728,
				1.147449016571045,
				0.08474042266607285
			]
		},
		{
			"mesh":1,
			"name":"Wax_tablet_mid_mesh"
		},
		{
			"mesh":2,
			"name":"Wax_tablet_r_mesh",
			"rotation":[
				0,
				0.7071068286895752,
				0,
				0.7071068286895752
			],
			"translation":[
				-0.04235240817070007,
				1.147449016571045,
				0.09139192849397659
			]
		},
		{
			"mesh":3,
			"name":"Wax_tablet_stylus_mesh",
			"rotation":[
				0.7013096213340759,
				0.09036006778478622,
				0.09036008268594742,
				0.7013095021247864
			],
			"scale":[
				0.303967148065567,
				0.30396708846092224,
				0.303967148065567
			],
			"translation":[
				0.030620098114013672,
				0.7829767465591431,
				1.3742114305496216
			]
		},
		{
			"children":[
				0,
				1,
				2,
				3
			],
			"name":"Wax_tablet_null_mesh",
			"scale":[
				0.24980428814888,
				0.24980428814888,
				0.24980428814888
			]
		}
	],
	"animations":[
		{
			"channels":[
				{
					"sampler":0,
					"target":{
						"node":4,
						"path":"translation"
					}
				},
				{
					"sampler":1,
					"target":{
						"node":4,
						"path":"rotation"
					}
				}
			],
			"name":"TransformAction",
			"samplers":[
				{
					"input":16,
					"interpolation":"STEP",
					"output":17
				},
				{
					"input":18,
					"interpolation":"LINEAR",
					"output":19
				}
			]
		},
		{
			"channels":[
				{
					"sampler":0,
					"target":{
						"node":0,
						"path":"rotation"
					}
				}
			],
			"name":"tablet_LAction.001",
			"samplers":[
				{
					"input":20,
					"interpolation":"LINEAR",
					"output":21
				}
			]
		},
		{
			"channels":[
				{
					"sampler":0,
					"target":{
						"node":2,
						"path":"rotation"
					}
				}
			],
			"name":"tablet_RAction.001",
			"samplers":[
				{
					"input":20,
					"interpolation":"LINEAR",
					"output":22
				}
			]
		},
		{
			"channels":[
				{
					"sampler":0,
					"target":{
						"node":3,
						"path":"translation"
					}
				},
				{
					"sampler":1,
					"target":{
						"node":3,
						"path":"rotation"
					}
				},
				{
					"sampler":2,
					"target":{
						"node":3,
						"path":"scale"
					}
				}
			],
			"name":"stylusAction",
			"samplers":[
				{
					"input":23,
					"interpolation":"LINEAR",
					"output":24
				},
				{
					"input":23,
					"interpolation":"LINEAR",
					"output":25
				},
				{
					"input":23,
					"interpolation":"LINEAR",
					"output":26
				}
			]
		}
	],
	"materials":[
		{
			"doubleSided":true,
			"extensions":{
				"KHR_materials_specular":{
					"specularFactor":0
				},
				"KHR_materials_ior":{
					"ior":1.4500000476837158
				}
			},
			"name":"Wax_tablet_material",
			"pbrMetallicRoughness":{
				"baseColorTexture":{
					"index":0
				},
				"metallicFactor":0
			}
		}
	],
	"meshes":[
		{
			"name":"Wax_tablet_l_mesh",
			"primitives":[
				{
					"attributes":{
						"POSITION":0,
						"NORMAL":1,
						"TEXCOORD_0":2
					},
					"indices":3,
					"material":0
				}
			]
		},
		{
			"name":"Wax_tablet_mid_mesh",
			"primitives":[
				{
					"attributes":{
						"POSITION":4,
						"NORMAL":5,
						"TEXCOORD_0":6
					},
					"indices":7,
					"material":0
				}
			]
		},
		{
			"name":"Wax_tablet_r_mesh",
			"primitives":[
				{
					"attributes":{
						"POSITION":8,
						"NORMAL":9,
						"TEXCOORD_0":10
					},
					"indices":11,
					"material":0
				}
			]
		},
		{
			"name":"Wax_tablet_stylus_mesh",
			"primitives":[
				{
					"attributes":{
						"POSITION":12,
						"NORMAL":13,
						"TEXCOORD_0":14
					},
					"indices":15,
					"material":0
				}
			]
		}
	],
	"textures":[
		{
			"sampler":0,
			"source":0
		}
	],
	"images":[
		{
			"mimeType":"image/png",
			"name":"Wax_tablet_BaceColor",
			"uri":"Wax_tablet_BaceColor.png"
		}
	],
	"accessors":[
		{
			"bufferView":0,
			"componentType":5126,
			"count":58,
			"max":[
				3.0364439487457275,
				0.828893780708313,
				0.04326891154050827
			],
			"min":[
				0.04023044556379318,
				-3.1232550144195557,
				-0.23746663331985474
			],
			"type":"VEC3"
		},
		{
			"bufferView":1,
			"componentType":5126,
			"count":58,
			"type":"VEC3"
		},
		{
			"bufferView":2,
			"componentType":5126,
			"count":58,
			"type":"VEC2"
		},
		{
			"bufferView":3,
			"componentType":5123,
			"count":276,
			"type":"SCALAR"
		},
		{
			"bufferView":4,
			"componentType":5126,
			"count":461,
			"max":[
				0.3286060094833374,
				1.2194334268569946,
				0.30348512530326843
			],
			"min":[
				-0.3276439905166626,
				-1.231316089630127,
				-0.35356608033180237
			],
			"type":"VEC3"
		},
		{
			"bufferView":5,
			"componentType":5126,
			"count":461,
			"type":"VEC3"
		},
		{
			"bufferView":6,
			"componentType":5126,
			"count":461,
			"type":"VEC2"
		},
		{
			"bufferView":7,
			"componentType":5123,
			"count":2304,
			"type":"SCALAR"
		},
		{
			"bufferView":8,
			"componentType":5126,
			"count":58,
			"max":[
				-0.035462066531181335,
				0.828893780708313,
				0.03661740571260452
			],
			"min":[
				-3.0316760540008545,
				-3.1232550144195557,
				-0.24411815404891968
			],
			"type":"VEC3"
		},
		{
			"bufferView":9,
			"componentType":5126,
			"count":58,
			"type":"VEC3"
		},
		{
			"bufferView":10,
			"componentType":5126,
			"count":58,
			"type":"VEC2"
		},
		{
			"bufferView":11,
			"componentType":5123,
			"count":276,
			"type":"SCALAR"
		},
		{
			"bufferView":12,
			"componentType":5126,
			"count":1069,
			"max":[
				0.2413179874420166,
				0.1429908275604248,
				2.506145477294922
			],
			"min":[
				-0.4465975761413574,
				-0.14271807670593262,
				-1.0878796577453613
			],
			"type":"VEC3"
		},
		{
			"bufferView":13,
			"componentType":5126,
			"count":1069,
			"type":"VEC3"
		},
		{
			"bufferView":14,
			"componentType":5126,
			"count":1069,
			"type":"VEC2"
		},
		{
			"bufferView":15,
			"componentType":5123,
			"count":4446,
			"type":"SCALAR"
		},
		{
			"bufferView":16,
			"componentType":5126,
			"count":2,
			"max":[
				1.1666666666666667
			],
			"min":[
				0
			],
			"type":"SCALAR"
		},
		{
			"bufferView":17,
			"componentType":5126,
			"count":2,
			"type":"VEC3"
		},
		{
			"bufferView":18,
			"componentType":5126,
			"count":29,
			"max":[
				1.1666666666666667
			],
			"min":[
				0
			],
			"type":"SCALAR"
		},
		{
			"bufferView":19,
			"componentType":5126,
			"count":29,
			"type":"VEC4"
		},
		{
			"bufferView":20,
			"componentType":5126,
			"count":41,
			"max":[
				1.6666666666666667
			],
			"min":[
				0
			],
			"type":"SCALAR"
		},
		{
			"bufferView":21,
			"componentType":5126,
			"count":41,
			"type":"VEC4"
		},
		{
			"bufferView":22,
			"componentType":5126,
			"count":41,
			"type":"VEC4"
		},
		{
			"bufferView":23,
			"componentType":5126,
			"count":56,
			"max":[
				2.2916666666666665
			],
			"min":[
				0
			],
			"type":"SCALAR"
		},
		{
			"bufferView":24,
			"componentType":5126,
			"count":56,
			"type":"VEC3"
		},
		{
			"bufferView":25,
			"componentType":5126,
			"count":56,
			"type":"VEC4"
		},
		{
			"bufferView":26,
			"componentType":5126,
			"count":56,
			"type":"VEC3"
		}
	],
	"bufferViews":[
		{
			"buffer":0,
			"byteLength":696,
			"byteOffset":0,
			"target":34962
		},
		{
			"buffer":0,
			"byteLength":696,
			"byteOffset":696,
			"target":34962
		},
		{
			"buffer":0,
			"byteLength":464,
			"byteOffset":1392,
			"target":34962
		},
		{
			"buffer":0,
			"byteLength":552,
			"byteOffset":1856,
			"target":34963
		},
		{
			"buffer":0,
			"byteLength":5532,
			"byteOffset":2408,
			"target":34962
		},
		{
			"buffer":0,
			"byteLength":5532,
			"byteOffset":7940,
			"target":34962
		},
		{
			"buffer":0,
			"byteLength":3688,
			"byteOffset":13472,
			"target":34962
		},
		{
			"buffer":0,
			"byteLength":4608,
			"byteOffset":17160,
			"target":34963
		},
		{
			"buffer":0,
			"byteLength":696,
			"byteOffset":21768,
			"target":34962
		},
		{
			"buffer":0,
			"byteLength":696,
			"byteOffset":22464,
			"target":34962
		},
		{
			"buffer":0,
			"byteLength":464,
			"byteOffset":23160,
			"target":34962
		},
		{
			"buffer":0,
			"byteLength":552,
			"byteOffset":23624,
			"target":34963
		},
		{
			"buffer":0,
			"byteLength":12828,
			"byteOffset":24176,
			"target":34962
		},
		{
			"buffer":0,
			"byteLength":12828,
			"byteOffset":37004,
			"target":34962
		},
		{
			"buffer":0,
			"byteLength":8552,
			"byteOffset":49832,
			"target":34962
		},
		{
			"buffer":0,
			"byteLength":8892,
			"byteOffset":58384,
			"target":34963
		},
		{
			"buffer":0,
			"byteLength":8,
			"byteOffset":67276
		},
		{
			"buffer":0,
			"byteLength":24,
			"byteOffset":67284
		},
		{
			"buffer":0,
			"byteLength":116,
			"byteOffset":67308
		},
		{
			"buffer":0,
			"byteLength":464,
			"byteOffset":67424
		},
		{
			"buffer":0,
			"byteLength":164,
			"byteOffset":67888
		},
		{
			"buffer":0,
			"byteLength":656,
			"byteOffset":68052
		},
		{
			"buffer":0,
			"byteLength":656,
			"byteOffset":68708
		},
		{
			"buffer":0,
			"byteLength":224,
			"byteOffset":69364
		},
		{
			"buffer":0,
			"byteLength":672,
			"byteOffset":69588
		},
		{
			"buffer":0,
			"byteLength":896,
			"byteOffset":70260
		},
		{
			"buffer":0,
			"byteLength":672,
			"byteOffset":71156
		}
	],
	"samplers":[
		{
			"magFilter":9729,
			"minFilter":9987
		}
	],
	"buffers":[
		{
			"byteLength":71828,
			"uri":"Wax_tablet.bin"
		}
	]
}
