{
	"asset":{
		"generator":"Khronos glTF Blender I/O v4.3.12",
		"version":"2.0"
	},
	"scene":0,
	"scenes":[
		{
			"name":"Scene",
			"nodes":[
				2
			]
		}
	],
	"nodes":[
		{
			"mesh":0,
			"name":"Flash_anim",
			"rotation":[
				-0.5347787141799927,
				0.5073204040527344,
				0.4719693064689636,
				0.4836142361164093
			],
			"translation":[
				0.00043453648686408997,
				0.5891842842102051,
				-0.025551721453666687
			]
		},
		{
			"mesh":1,
			"name":"Flash_base",
			"rotation":[
				-0.5321118831634521,
				0.5038459300994873,
				0.4732338488101959,
				0.4889233708381653
			]
		},
		{
			"children":[
				0,
				1
			],
			"name":"Empty",
			"rotation":[
				-0.0739249661564827,
				0.9781477451324463,
				-0.07775252312421799,
				0.17809170484542847
			]
		}
	],
	"animations":[
		{
			"channels":[
				{
					"sampler":0,
					"target":{
						"node":2,
						"path":"rotation"
					}
				}
			],
			"name":"EmptyAction",
			"samplers":[
				{
					"input":20,
					"interpolation":"LINEAR",
					"output":21
				}
			]
		},
		{
			"channels":[
				{
					"sampler":0,
					"target":{
						"node":0,
						"path":"translation"
					}
				}
			],
			"name":"Flash_animAction",
			"samplers":[
				{
					"input":22,
					"interpolation":"LINEAR",
					"output":23
				}
			]
		}
	],
	"materials":[
		{
			"doubleSided":true,
			"name":"Material.001",
			"normalTexture":{
				"index":0,
				"scale":0.36000001430511475
			},
			"pbrMetallicRoughness":{
				"baseColorTexture":{
					"index":1
				},
				"metallicRoughnessTexture":{
					"index":2
				}
			}
		},
		{
			"doubleSided":true,
			"name":"Material.002",
			"normalTexture":{
				"index":3
			},
			"pbrMetallicRoughness":{
				"baseColorTexture":{
					"index":4
				},
				"metallicRoughnessTexture":{
					"index":5
				}
			}
		},
		{
			"doubleSided":true,
			"name":"Material.003",
			"normalTexture":{
				"index":6
			},
			"pbrMetallicRoughness":{
				"baseColorTexture":{
					"index":7
				},
				"metallicRoughnessTexture":{
					"index":8
				}
			}
		},
		{
			"doubleSided":true,
			"name":"Material",
			"normalTexture":{
				"index":9,
				"scale":0.9599999785423279
			},
			"pbrMetallicRoughness":{
				"baseColorTexture":{
					"index":10
				},
				"metallicRoughnessTexture":{
					"index":11
				}
			}
		}
	],
	"meshes":[
		{
			"name":"Cube.002",
			"primitives":[
				{
					"attributes":{
						"POSITION":0,
						"NORMAL":1,
						"TEXCOORD_0":2
					},
					"indices":3,
					"material":0
				},
				{
					"attributes":{
						"POSITION":4,
						"NORMAL":5,
						"TEXCOORD_0":6
					},
					"indices":7,
					"material":1
				},
				{
					"attributes":{
						"POSITION":8,
						"NORMAL":9,
						"TEXCOORD_0":10
					},
					"indices":11,
					"material":2
				}
			]
		},
		{
			"name":"Cube.001",
			"primitives":[
				{
					"attributes":{
						"POSITION":12,
						"NORMAL":13,
						"TEXCOORD_0":14
					},
					"indices":15,
					"material":3
				},
				{
					"attributes":{
						"POSITION":16,
						"NORMAL":17,
						"TEXCOORD_0":18
					},
					"indices":19,
					"material":2
				}
			]
		}
	],
	"textures":[
		{
			"sampler":0,
			"source":0
		},
		{
			"sampler":0,
			"source":1
		},
		{
			"sampler":0,
			"source":2
		},
		{
			"sampler":0,
			"source":3
		},
		{
			"sampler":0,
			"source":4
		},
		{
			"sampler":0,
			"source":5
		},
		{
			"sampler":0,
			"source":6
		},
		{
			"sampler":0,
			"source":7
		},
		{
			"sampler":0,
			"source":8
		},
		{
			"sampler":0,
			"source":9
		},
		{
			"sampler":0,
			"source":10
		},
		{
			"sampler":0,
			"source":11
		}
	],
	"images":[
		{
			"mimeType":"image/png",
			"name":"flash_6_Material.001_Normal",
			"uri":"flash_6_Material_001_Normal.png"
		},
		{
			"mimeType":"image/png",
			"name":"flash_6_Material.001_BaseColor",
			"uri":"flash_6_Material_001_BaseColor.png"
		},
		{
			"mimeType":"image/png",
			"name":"flash_6_Material.001_Metallic-flash_6_Material.001_Roughness",
			"uri":"flash_6_Material_001_Metallic-flash_6_Material_001_Roughness.png"
		},
		{
			"mimeType":"image/png",
			"name":"flash_6_Material.002_Normal",
			"uri":"flash_6_Material_002_Normal.png"
		},
		{
			"mimeType":"image/png",
			"name":"flash_6_Material.002_BaseColor",
			"uri":"flash_6_Material_002_BaseColor.png"
		},
		{
			"mimeType":"image/png",
			"name":"flash_6_Material.002_Metallic-flash_6_Material.002_Roughness",
			"uri":"flash_6_Material_002_Metallic-flash_6_Material_002_Roughness.png"
		},
		{
			"mimeType":"image/png",
			"name":"flash_6_DefaultMaterial_Normal",
			"uri":"flash_6_DefaultMaterial_Normal.png"
		},
		{
			"mimeType":"image/png",
			"name":"flash_6_DefaultMaterial_BaseColor",
			"uri":"flash_6_DefaultMaterial_BaseColor.png"
		},
		{
			"mimeType":"image/png",
			"name":"flash_6_DefaultMaterial_Metallic-flash_6_DefaultMaterial_Roughness",
			"uri":"flash_6_DefaultMaterial_Metallic-flash_6_DefaultMaterial_Roughness.png"
		},
		{
			"mimeType":"image/png",
			"name":"flash_6_Material_Normal",
			"uri":"flash_6_Material_Normal.png"
		},
		{
			"mimeType":"image/png",
			"name":"flash_6_Material_BaseColor",
			"uri":"flash_6_Material_BaseColor.png"
		},
		{
			"mimeType":"image/png",
			"name":"flash_6_Material_Metallic-flash_6_Material_Roughness",
			"uri":"flash_6_Material_Metallic-flash_6_Material_Roughness.png"
		}
	],
	"accessors":[
		{
			"bufferView":0,
			"componentType":5126,
			"count":8048,
			"max":[
				0.3403282165527344,
				0.10436180233955383,
				2.106170415878296
			],
			"min":[
				-0.340328186750412,
				-0.11562551558017731,
				1.3657981157302856
			],
			"type":"VEC3"
		},
		{
			"bufferView":1,
			"componentType":5126,
			"count":8048,
			"type":"VEC3"
		},
		{
			"bufferView":2,
			"componentType":5126,
			"count":8048,
			"type":"VEC2"
		},
		{
			"bufferView":3,
			"componentType":5123,
			"count":43200,
			"type":"SCALAR"
		},
		{
			"bufferView":4,
			"componentType":5126,
			"count":262,
			"max":[
				0.31871703267097473,
				-0.03360380977392197,
				2.1004269123077393
			],
			"min":[
				-0.31871727108955383,
				-0.09766802936792374,
				1.4405386447906494
			],
			"type":"VEC3"
		},
		{
			"bufferView":5,
			"componentType":5126,
			"count":262,
			"type":"VEC3"
		},
		{
			"bufferView":6,
			"componentType":5126,
			"count":262,
			"type":"VEC2"
		},
		{
			"bufferView":7,
			"componentType":5123,
			"count":828,
			"type":"SCALAR"
		},
		{
			"bufferView":8,
			"componentType":5126,
			"count":2238,
			"max":[
				0.2593225836753845,
				0.24214476346969604,
				-0.04100009799003601
			],
			"min":[
				-0.2593225836753845,
				0.16518160700798035,
				-0.44490814208984375
			],
			"type":"VEC3"
		},
		{
			"bufferView":9,
			"componentType":5126,
			"count":2238,
			"type":"VEC3"
		},
		{
			"bufferView":10,
			"componentType":5126,
			"count":2238,
			"type":"VEC2"
		},
		{
			"bufferView":11,
			"componentType":5123,
			"count":11712,
			"type":"SCALAR"
		},
		{
			"bufferView":12,
			"componentType":5126,
			"count":12848,
			"max":[
				0.5763013958930969,
				0.2412630170583725,
				2.1152968406677246
			],
			"min":[
				-0.5763013958930969,
				-0.2272973656654358,
				-1.4678819179534912
			],
			"type":"VEC3"
		},
		{
			"bufferView":13,
			"componentType":5126,
			"count":12848,
			"type":"VEC3"
		},
		{
			"bufferView":14,
			"componentType":5126,
			"count":12848,
			"type":"VEC2"
		},
		{
			"bufferView":15,
			"componentType":5123,
			"count":68448,
			"type":"SCALAR"
		},
		{
			"bufferView":16,
			"componentType":5126,
			"count":439,
			"max":[
				0.2635858356952667,
				0.1870439052581787,
				0.5539699196815491
			],
			"min":[
				-0.26358580589294434,
				0.16691146790981293,
				-0.5135208964347839
			],
			"type":"VEC3"
		},
		{
			"bufferView":17,
			"componentType":5126,
			"count":439,
			"type":"VEC3"
		},
		{
			"bufferView":18,
			"componentType":5126,
			"count":439,
			"type":"VEC2"
		},
		{
			"bufferView":19,
			"componentType":5123,
			"count":2304,
			"type":"SCALAR"
		},
		{
			"bufferView":20,
			"componentType":5126,
			"count":81,
			"max":[
				3.3333333333333335
			],
			"min":[
				0
			],
			"type":"SCALAR"
		},
		{
			"bufferView":21,
			"componentType":5126,
			"count":81,
			"type":"VEC4"
		},
		{
			"bufferView":22,
			"componentType":5126,
			"count":2,
			"max":[
				2.0833333333333335
			],
			"min":[
				0
			],
			"type":"SCALAR"
		},
		{
			"bufferView":23,
			"componentType":5126,
			"count":2,
			"type":"VEC3"
		}
	],
	"bufferViews":[
		{
			"buffer":0,
			"byteLength":96576,
			"byteOffset":0,
			"target":34962
		},
		{
			"buffer":0,
			"byteLength":96576,
			"byteOffset":96576,
			"target":34962
		},
		{
			"buffer":0,
			"byteLength":64384,
			"byteOffset":193152,
			"target":34962
		},
		{
			"buffer":0,
			"byteLength":86400,
			"byteOffset":257536,
			"target":34963
		},
		{
			"buffer":0,
			"byteLength":3144,
			"byteOffset":343936,
			"target":34962
		},
		{
			"buffer":0,
			"byteLength":3144,
			"byteOffset":347080,
			"target":34962
		},
		{
			"buffer":0,
			"byteLength":2096,
			"byteOffset":350224,
			"target":34962
		},
		{
			"buffer":0,
			"byteLength":1656,
			"byteOffset":352320,
			"target":34963
		},
		{
			"buffer":0,
			"byteLength":26856,
			"byteOffset":353976,
			"target":34962
		},
		{
			"buffer":0,
			"byteLength":26856,
			"byteOffset":380832,
			"target":34962
		},
		{
			"buffer":0,
			"byteLength":17904,
			"byteOffset":407688,
			"target":34962
		},
		{
			"buffer":0,
			"byteLength":23424,
			"byteOffset":425592,
			"target":34963
		},
		{
			"buffer":0,
			"byteLength":154176,
			"byteOffset":449016,
			"target":34962
		},
		{
			"buffer":0,
			"byteLength":154176,
			"byteOffset":603192,
			"target":34962
		},
		{
			"buffer":0,
			"byteLength":102784,
			"byteOffset":757368,
			"target":34962
		},
		{
			"buffer":0,
			"byteLength":136896,
			"byteOffset":860152,
			"target":34963
		},
		{
			"buffer":0,
			"byteLength":5268,
			"byteOffset":997048,
			"target":34962
		},
		{
			"buffer":0,
			"byteLength":5268,
			"byteOffset":1002316,
			"target":34962
		},
		{
			"buffer":0,
			"byteLength":3512,
			"byteOffset":1007584,
			"target":34962
		},
		{
			"buffer":0,
			"byteLength":4608,
			"byteOffset":1011096,
			"target":34963
		},
		{
			"buffer":0,
			"byteLength":324,
			"byteOffset":1015704
		},
		{
			"buffer":0,
			"byteLength":1296,
			"byteOffset":1016028
		},
		{
			"buffer":0,
			"byteLength":8,
			"byteOffset":1017324
		},
		{
			"buffer":0,
			"byteLength":24,
			"byteOffset":1017332
		}
	],
	"samplers":[
		{
			"magFilter":9729,
			"minFilter":9987
		}
	],
	"buffers":[
		{
			"byteLength":1017356,
			"uri":"flash_02.bin"
		}
	]
}
