{
	"asset":{
		"generator":"Khronos glTF Blender I/O v4.3.12",
		"version":"2.0"
	},
	"extensionsUsed":[
		"KHR_materials_specular",
		"KHR_materials_ior"
	],
	"scene":0,
	"scenes":[
		{
			"name":"Scene",
			"nodes":[
				0
			]
		}
	],
	"nodes":[
		{
			"mesh":0,
			"name":"Cave_painting_Mesh"
		}
	],
	"materials":[
		{
			"doubleSided":true,
			"extensions":{
				"KHR_materials_specular":{
					"specularFactor":0
				},
				"KHR_materials_ior":{
					"ior":0
				}
			},
			"name":"Cave_painting_Material",
			"normalTexture":{
				"index":0,
				"scale":1.399999976158142
			},
			"pbrMetallicRoughness":{
				"baseColorTexture":{
					"index":1
				},
				"metallicFactor":0,
				"roughnessFactor":0.8863636255264282
			}
		}
	],
	"meshes":[
		{
			"name":"Cave_painting_Mesh",
			"primitives":[
				{
					"attributes":{
						"POSITION":0,
						"NORMAL":1,
						"TEXCOORD_0":2
					},
					"indices":3,
					"material":0
				}
			]
		}
	],
	"textures":[
		{
			"sampler":0,
			"source":0
		},
		{
			"sampler":0,
			"source":1
		}
	],
	"images":[
		{
			"mimeType":"image/png",
			"name":"Cave_painting_Normal",
			"uri":"Cave_painting_Normal.png"
		},
		{
			"mimeType":"image/png",
			"name":"Cave_painting_Base",
			"uri":"Cave_painting_Base.png"
		}
	],
	"accessors":[
		{
			"bufferView":0,
			"componentType":5126,
			"count":3930,
			"max":[
				0.7960576415061951,
				0.4608140289783478,
				0.3171403706073761
			],
			"min":[
				-0.7646253108978271,
				-0.486508846282959,
				-0.3190913200378418
			],
			"type":"VEC3"
		},
		{
			"bufferView":1,
			"componentType":5126,
			"count":3930,
			"type":"VEC3"
		},
		{
			"bufferView":2,
			"componentType":5126,
			"count":3930,
			"type":"VEC2"
		},
		{
			"bufferView":3,
			"componentType":5123,
			"count":20202,
			"type":"SCALAR"
		}
	],
	"bufferViews":[
		{
			"buffer":0,
			"byteLength":47160,
			"byteOffset":0,
			"target":34962
		},
		{
			"buffer":0,
			"byteLength":47160,
			"byteOffset":47160,
			"target":34962
		},
		{
			"buffer":0,
			"byteLength":31440,
			"byteOffset":94320,
			"target":34962
		},
		{
			"buffer":0,
			"byteLength":40404,
			"byteOffset":125760,
			"target":34963
		}
	],
	"samplers":[
		{
			"magFilter":9729,
			"minFilter":9987
		}
	],
	"buffers":[
		{
			"byteLength":166164,
			"uri":"Cave_painting.bin"
		}
	]
}
