{
	"asset":{
		"generator":"Khronos glTF Blender I/O v4.3.12",
		"version":"2.0"
	},
	"extensionsUsed":[
		"KHR_materials_specular"
	],
	"scene":0,
	"scenes":[
		{
			"name":"Scene",
			"nodes":[
				0
			]
		}
	],
	"nodes":[
		{
			"mesh":0,
			"name":"Alphabet_of_Veles_mesh"
		}
	],
	"materials":[
		{
			"doubleSided":true,
			"extensions":{
				"KHR_materials_specular":{
					"specularFactor":0
				}
			},
			"name":"Alphabet_of_Veles_Material",
			"normalTexture":{
				"index":0,
				"scale":2
			},
			"pbrMetallicRoughness":{
				"baseColorTexture":{
					"index":1
				},
				"metallicFactor":0
			}
		}
	],
	"meshes":[
		{
			"name":"Alphabet_of_Veles_mesh",
			"primitives":[
				{
					"attributes":{
						"POSITION":0,
						"NORMAL":1,
						"TEXCOORD_0":2
					},
					"indices":3,
					"material":0
				}
			]
		}
	],
	"textures":[
		{
			"sampler":0,
			"source":0
		},
		{
			"sampler":0,
			"source":1
		}
	],
	"images":[
		{
			"mimeType":"image/png",
			"name":"Alphabet_of_Veles_Normal",
			"uri":"Alphabet_of_Veles_Normal.png"
		},
		{
			"mimeType":"image/jpeg",
			"name":"Alphabet_of_Veles_BaseColor",
			"uri":"Alphabet_of_Veles_BaseColor.jpg"
		}
	],
	"accessors":[
		{
			"bufferView":0,
			"componentType":5126,
			"count":4824,
			"max":[
				0.7730474472045898,
				0.4535224735736847,
				0.062411118298769
			],
			"min":[
				-0.7726024985313416,
				-0.45372965931892395,
				-0.062072765082120895
			],
			"type":"VEC3"
		},
		{
			"bufferView":1,
			"componentType":5126,
			"count":4824,
			"type":"VEC3"
		},
		{
			"bufferView":2,
			"componentType":5126,
			"count":4824,
			"type":"VEC2"
		},
		{
			"bufferView":3,
			"componentType":5123,
			"count":26598,
			"type":"SCALAR"
		}
	],
	"bufferViews":[
		{
			"buffer":0,
			"byteLength":57888,
			"byteOffset":0,
			"target":34962
		},
		{
			"buffer":0,
			"byteLength":57888,
			"byteOffset":57888,
			"target":34962
		},
		{
			"buffer":0,
			"byteLength":38592,
			"byteOffset":115776,
			"target":34962
		},
		{
			"buffer":0,
			"byteLength":53196,
			"byteOffset":154368,
			"target":34963
		}
	],
	"samplers":[
		{
			"magFilter":9729,
			"minFilter":9987
		}
	],
	"buffers":[
		{
			"byteLength":207564,
			"uri":"Alphabet_of_Veles.bin"
		}
	]
}
