{
	"asset":{
		"generator":"Khronos glTF Blender I/O v4.3.12",
		"version":"2.0"
	},
	"scene":0,
	"scenes":[
		{
			"name":"Scene",
			"nodes":[
				4
			]
		}
	],
	"nodes":[
		{
			"name":"Object_2"
		},
		{
			"mesh":0,
			"name":"Object_3"
		},
		{
			"mesh":1,
			"name":"Object_4"
		},
		{
			"children":[
				0,
				1,
				2
			],
			"name":"sony.obj.cleaner.materialmerger.gles"
		},
		{
			"children":[
				3
			],
			"name":"Model",
			"rotation":[
				-0.5,
				0.5,
				0.5,
				0.5
			]
		}
	],
	"materials":[
		{
			"doubleSided":true,
			"name":"Cassette",
			"normalTexture":{
				"index":0
			},
			"occlusionTexture":{
				"index":1
			},
			"pbrMetallicRoughness":{
				"baseColorTexture":{
					"index":2
				},
				"metallicRoughnessTexture":{
					"index":1
				},
				"roughnessFactor":0.9187228679656982
			}
		},
		{
			"alphaMode":"BLEND",
			"doubleSided":true,
			"name":"Material.001",
			"normalTexture":{
				"index":3
			},
			"occlusionTexture":{
				"index":4
			},
			"pbrMetallicRoughness":{
				"baseColorTexture":{
					"index":5
				},
				"metallicRoughnessTexture":{
					"index":4
				}
			}
		}
	],
	"meshes":[
		{
			"name":"Object_1",
			"primitives":[
				{
					"attributes":{
						"POSITION":0,
						"NORMAL":1,
						"TEXCOORD_0":2
					},
					"indices":3,
					"material":0
				}
			]
		},
		{
			"name":"Object_2",
			"primitives":[
				{
					"attributes":{
						"POSITION":4,
						"NORMAL":5,
						"TEXCOORD_0":6
					},
					"indices":7,
					"material":1
				}
			]
		}
	],
	"textures":[
		{
			"sampler":0,
			"source":0
		},
		{
			"sampler":0,
			"source":1
		},
		{
			"sampler":0,
			"source":2
		},
		{
			"sampler":0,
			"source":3
		},
		{
			"sampler":0,
			"source":4
		},
		{
			"sampler":0,
			"source":5
		}
	],
	"images":[
		{
			"mimeType":"image/png",
			"name":"Image_2",
			"uri":"Image_2.png"
		},
		{
			"mimeType":"image/png",
			"name":"Image_1",
			"uri":"Image_1.png"
		},
		{
			"mimeType":"image/png",
			"name":"Image_0",
			"uri":"Image_0.png"
		},
		{
			"mimeType":"image/png",
			"name":"Image_5",
			"uri":"Image_5.png"
		},
		{
			"mimeType":"image/png",
			"name":"Image_4",
			"uri":"Image_4.png"
		},
		{
			"mimeType":"image/png",
			"name":"Image_3",
			"uri":"Image_3.png"
		}
	],
	"accessors":[
		{
			"bufferView":0,
			"componentType":5126,
			"count":4062,
			"max":[
				9.22506046295166,
				1.349120020866394,
				7.947784900665283
			],
			"min":[
				-2.2064321041107178,
				-5.833823204040527,
				0.004240000154823065
			],
			"type":"VEC3"
		},
		{
			"bufferView":1,
			"componentType":5126,
			"count":4062,
			"type":"VEC3"
		},
		{
			"bufferView":2,
			"componentType":5126,
			"count":4062,
			"type":"VEC2"
		},
		{
			"bufferView":3,
			"componentType":5123,
			"count":10143,
			"type":"SCALAR"
		},
		{
			"bufferView":4,
			"componentType":5126,
			"count":2223,
			"max":[
				2.7163970470428467,
				0.2598319947719574,
				8.523771286010742
			],
			"min":[
				-3.1110239028930664,
				-1.0023800134658813,
				0.030472999438643456
			],
			"type":"VEC3"
		},
		{
			"bufferView":5,
			"componentType":5126,
			"count":2223,
			"type":"VEC3"
		},
		{
			"bufferView":6,
			"componentType":5126,
			"count":2223,
			"type":"VEC2"
		},
		{
			"bufferView":7,
			"componentType":5123,
			"count":6519,
			"type":"SCALAR"
		}
	],
	"bufferViews":[
		{
			"buffer":0,
			"byteLength":48744,
			"byteOffset":0,
			"target":34962
		},
		{
			"buffer":0,
			"byteLength":48744,
			"byteOffset":48744,
			"target":34962
		},
		{
			"buffer":0,
			"byteLength":32496,
			"byteOffset":97488,
			"target":34962
		},
		{
			"buffer":0,
			"byteLength":20286,
			"byteOffset":129984,
			"target":34963
		},
		{
			"buffer":0,
			"byteLength":26676,
			"byteOffset":150272,
			"target":34962
		},
		{
			"buffer":0,
			"byteLength":26676,
			"byteOffset":176948,
			"target":34962
		},
		{
			"buffer":0,
			"byteLength":17784,
			"byteOffset":203624,
			"target":34962
		},
		{
			"buffer":0,
			"byteLength":13038,
			"byteOffset":221408,
			"target":34963
		}
	],
	"samplers":[
		{
			"magFilter":9729,
			"minFilter":9987
		}
	],
	"buffers":[
		{
			"byteLength":234448,
			"uri":"Magnetic_types.bin"
		}
	]
}
