{
	"asset":{
		"generator":"Khronos glTF Blender I/O v4.3.12",
		"version":"2.0"
	},
	"scene":0,
	"scenes":[
		{
			"name":"Scene",
			"nodes":[
				0
			]
		}
	],
	"nodes":[
		{
			"mesh":0,
			"name":"Photographic_film_mesh"
		}
	],
	"materials":[
		{
			"doubleSided":true,
			"name":"Photographic_film_material",
			"normalTexture":{
				"index":0
			},
			"occlusionTexture":{
				"index":1,
				"strength":0.888383686542511
			},
			"pbrMetallicRoughness":{
				"baseColorTexture":{
					"index":2
				},
				"metallicFactor":0,
				"metallicRoughnessTexture":{
					"index":1
				}
			}
		}
	],
	"meshes":[
		{
			"name":"Photographic_film_mesh",
			"primitives":[
				{
					"attributes":{
						"POSITION":0,
						"NORMAL":1,
						"TEXCOORD_0":2
					},
					"indices":3,
					"material":0
				}
			]
		}
	],
	"textures":[
		{
			"sampler":0,
			"source":0
		},
		{
			"sampler":0,
			"source":1
		},
		{
			"sampler":0,
			"source":2
		}
	],
	"images":[
		{
			"mimeType":"image/png",
			"name":"Photographic_film_Normal",
			"uri":"Photographic_film_Normal.png"
		},
		{
			"mimeType":"image/png",
			"name":"Photographic_film_Roughness",
			"uri":"Photographic_film_Roughness.png"
		},
		{
			"mimeType":"image/png",
			"name":"Photographic_film_BaceColor",
			"uri":"Photographic_film_BaceColor.png"
		}
	],
	"accessors":[
		{
			"bufferView":0,
			"componentType":5126,
			"count":3318,
			"max":[
				0.5140169858932495,
				0.563541829586029,
				0.32560181617736816
			],
			"min":[
				-0.5498563051223755,
				-0.62153160572052,
				-0.7124898433685303
			],
			"type":"VEC3"
		},
		{
			"bufferView":1,
			"componentType":5126,
			"count":3318,
			"type":"VEC3"
		},
		{
			"bufferView":2,
			"componentType":5126,
			"count":3318,
			"type":"VEC2"
		},
		{
			"bufferView":3,
			"componentType":5123,
			"count":10338,
			"type":"SCALAR"
		}
	],
	"bufferViews":[
		{
			"buffer":0,
			"byteLength":39816,
			"byteOffset":0,
			"target":34962
		},
		{
			"buffer":0,
			"byteLength":39816,
			"byteOffset":39816,
			"target":34962
		},
		{
			"buffer":0,
			"byteLength":26544,
			"byteOffset":79632,
			"target":34962
		},
		{
			"buffer":0,
			"byteLength":20676,
			"byteOffset":106176,
			"target":34963
		}
	],
	"samplers":[
		{
			"magFilter":9729,
			"minFilter":9987
		}
	],
	"buffers":[
		{
			"byteLength":126852,
			"uri":"Photographic_film.bin"
		}
	]
}
