{
	"asset":{
		"generator":"Khronos glTF Blender I/O v4.3.12",
		"version":"2.0"
	},
	"scene":0,
	"scenes":[
		{
			"name":"Scene",
			"nodes":[
				2
			]
		}
	],
	"nodes":[
		{
			"mesh":0,
			"name":"Engraved_drawing_main_mesh",
			"rotation":[
				-0.7071068286895752,
				0,
				0,
				0.7071068286895752
			],
			"scale":[
				-0.4148861765861511,
				-0.4148861765861511,
				-0.4148862063884735
			]
		},
		{
			"mesh":1,
			"name":"Engraved_drawing_second_mesh",
			"rotation":[
				-0.7071068286895752,
				0,
				0,
				0.7071068286895752
			],
			"scale":[
				-0.4148861765861511,
				-0.4148861765861511,
				-0.4148862063884735
			]
		},
		{
			"children":[
				0,
				1
			],
			"name":"Engraved_drawing_empty_mesh",
			"rotation":[
				-0.9563047885894775,
				-0.2923717200756073,
				0,
				1.5580181411678495e-07
			],
			"scale":[
				-2.41029953956604,
				-2.41029953956604,
				-2.41029953956604
			]
		}
	],
	"materials":[
		{
			"doubleSided":true,
			"name":"Engraved_drawing_main_material",
			"normalTexture":{
				"index":0
			},
			"pbrMetallicRoughness":{
				"baseColorTexture":{
					"index":1
				},
				"metallicFactor":0.8431783318519592,
				"metallicRoughnessTexture":{
					"index":2
				},
				"roughnessFactor":0.8614710569381714
			}
		},
		{
			"doubleSided":true,
			"name":"Engraved_drawing_second_material",
			"normalTexture":{
				"index":3
			},
			"pbrMetallicRoughness":{
				"baseColorTexture":{
					"index":4
				},
				"metallicFactor":0.9346417784690857,
				"metallicRoughnessTexture":{
					"index":5
				},
				"roughnessFactor":0.7639100551605225
			}
		}
	],
	"meshes":[
		{
			"name":"Engraved_drawing_main_mesh",
			"primitives":[
				{
					"attributes":{
						"POSITION":0,
						"NORMAL":1,
						"TEXCOORD_0":2
					},
					"indices":3,
					"material":0
				}
			]
		},
		{
			"name":"Engraved_drawing_second_mesh",
			"primitives":[
				{
					"attributes":{
						"POSITION":4,
						"NORMAL":5,
						"TEXCOORD_0":6
					},
					"indices":7,
					"material":1
				}
			]
		}
	],
	"textures":[
		{
			"sampler":0,
			"source":0
		},
		{
			"sampler":0,
			"source":1
		},
		{
			"sampler":0,
			"source":2
		},
		{
			"sampler":0,
			"source":3
		},
		{
			"sampler":0,
			"source":4
		},
		{
			"sampler":0,
			"source":5
		}
	],
	"images":[
		{
			"mimeType":"image/png",
			"name":"Engraved_drawing_main_Normal",
			"uri":"Engraved_drawing_main_Normal.png"
		},
		{
			"mimeType":"image/png",
			"name":"Engraved_drawing_main_BaseColor",
			"uri":"Engraved_drawing_main_BaseColor.png"
		},
		{
			"mimeType":"image/png",
			"name":"Engraved_drawing_main_Roughness",
			"uri":"Engraved_drawing_main_Roughness.png"
		},
		{
			"mimeType":"image/png",
			"name":"Engraved_drawing_second_Normal",
			"uri":"Engraved_drawing_second_Normal.png"
		},
		{
			"mimeType":"image/png",
			"name":"Engraved_drawing_second_BaseColor",
			"uri":"Engraved_drawing_second_BaseColor.png"
		},
		{
			"mimeType":"image/png",
			"name":"Engraved_drawing_second_Roughness",
			"uri":"Engraved_drawing_second_Roughness.png"
		}
	],
	"accessors":[
		{
			"bufferView":0,
			"componentType":5126,
			"count":4551,
			"max":[
				1.312379240989685,
				0.17320452630519867,
				1.3457107543945312
			],
			"min":[
				-1.3193129301071167,
				-0.17321985960006714,
				-1.3348788022994995
			],
			"type":"VEC3"
		},
		{
			"bufferView":1,
			"componentType":5126,
			"count":4551,
			"type":"VEC3"
		},
		{
			"bufferView":2,
			"componentType":5126,
			"count":4551,
			"type":"VEC2"
		},
		{
			"bufferView":3,
			"componentType":5123,
			"count":17802,
			"type":"SCALAR"
		},
		{
			"bufferView":4,
			"componentType":5126,
			"count":3682,
			"max":[
				2.225095510482788,
				0.17123453319072723,
				0.3107777535915375
			],
			"min":[
				-8.995498657226562,
				-0.1691448837518692,
				-0.3296050727367401
			],
			"type":"VEC3"
		},
		{
			"bufferView":5,
			"componentType":5126,
			"count":3682,
			"type":"VEC3"
		},
		{
			"bufferView":6,
			"componentType":5126,
			"count":3682,
			"type":"VEC2"
		},
		{
			"bufferView":7,
			"componentType":5123,
			"count":12972,
			"type":"SCALAR"
		}
	],
	"bufferViews":[
		{
			"buffer":0,
			"byteLength":54612,
			"byteOffset":0,
			"target":34962
		},
		{
			"buffer":0,
			"byteLength":54612,
			"byteOffset":54612,
			"target":34962
		},
		{
			"buffer":0,
			"byteLength":36408,
			"byteOffset":109224,
			"target":34962
		},
		{
			"buffer":0,
			"byteLength":35604,
			"byteOffset":145632,
			"target":34963
		},
		{
			"buffer":0,
			"byteLength":44184,
			"byteOffset":181236,
			"target":34962
		},
		{
			"buffer":0,
			"byteLength":44184,
			"byteOffset":225420,
			"target":34962
		},
		{
			"buffer":0,
			"byteLength":29456,
			"byteOffset":269604,
			"target":34962
		},
		{
			"buffer":0,
			"byteLength":25944,
			"byteOffset":299060,
			"target":34963
		}
	],
	"samplers":[
		{
			"magFilter":9729,
			"minFilter":9987
		}
	],
	"buffers":[
		{
			"byteLength":325004,
			"uri":"Engraved_drawing.bin"
		}
	]
}
